<svg xmlns:xlink="http://www.w3.org/1999/xlink" xmlns="http://www.w3.org/2000/svg" id="Layer_1" data-name="Layer 1" viewBox="0 0 384 384" fit="" height="384" width="384" preserveAspectRatio="xMidYMid meet" focusable="false">
  <defs>
    <style>
      .cls-1 {
        fill: #f7b103;
        stroke-width: 10px;
      }
    </style>
  </defs>
  
  <path class="cls-1" d="M203.87,219.34c0,38.01,0,76.02,0,114.03,0,10.98-6.02,16.14-16.84,13.94-3.96-.81-8.15-2.06-11.44-4.29-26.47-17.96-56.17-27.37-87.18-33.3-10.66-2.04-21.56-2.88-32.12-5.32-21.46-4.95-36.05-23.34-36.1-45.29-.14-60.01-.13-120.03,0-180.05.04-20.63,12.94-37.5,31.36-42.05,7.89-1.95,15.66-.6,23.44.51,27.92,3.99,55.25,10.33,81.03,21.99,10.42,4.71,20.3,10.69,30.19,16.49,4.08,2.4,7.41,2.7,11.37.02,26.07-17.66,55.31-27.48,85.8-33.93,11.1-2.35,22.41-3.66,33.61-5.55,21.27-3.6,41.07,10.8,45.84,33.11.67,3.15.91,6.44.92,9.67.06,47.76.05,95.52.03,143.29,0,8.95-6.3,14.62-14.29,12.86-4.82-1.06-7.94-4.1-8.98-8.97-.41-1.93-.43-3.97-.43-5.96-.02-46.26,0-92.52-.07-138.79,0-3.34-.21-6.82-1.18-9.97-2.49-8.11-9.8-12.82-18.2-11.82-26.5,3.15-52.39,8.89-77.32,18.66-13.57,5.32-25.99,12.73-38.18,20.56-.89.57-1.22,2.55-1.23,3.88-.07,24.76-.05,49.51-.05,74.27,0,14,0,28.01,0,42.01ZM180.06,317.4v-4.4c0-69.77,0-139.55,0-209.32,0-.75.17-1.55-.05-2.24-.27-.86-.64-1.96-1.32-2.36-8.82-5.18-17.44-10.81-26.63-15.25-28.2-13.62-58.39-20.24-89.29-23.89-7.7-.91-14.39,3.27-17.16,10.59-1.16,3.07-1.6,6.55-1.67,9.86-.21,9.87-.08,19.76-.08,29.63,0,49.14.14,98.29-.09,147.43-.07,13.58,9.56,22.79,20.31,24.53,3.82.62,7.68.99,11.51,1.54,30.56,4.36,60.24,11.83,88.16,25.36,5.35,2.59,10.54,5.5,16.3,8.51Z" fill="#F7B103" stroke-width="10px"></path>
  <path class="cls-1" d="M299.89,304.12c0,10.23.03,20.47,0,30.7-.03,7.64-5.05,13.1-11.93,13.08-6.88-.02-11.86-5.47-11.87-13.13-.03-20.47-.02-40.94,0-61.41,0-7.84,4.73-13.08,11.73-13.15,7.2-.07,12.05,5.2,12.07,13.21.03,10.23,0,20.47,0,30.7Z" fill="#F7B103" stroke-width="10px"></path>
  <path class="cls-1" d="M303.76,224.24c-.1,8.68-7.2,15.67-15.86,15.62-8.81-.05-15.78-7.24-15.68-16.17.09-8.7,7.18-15.68,15.86-15.61,8.88.07,15.79,7.19,15.69,16.16Z" fill="#F7B103" stroke-width="10px"></path>
  
  <path class="cls-1" d="M81.65,120.08c7.43,1.47,16.72,2.83,25.73,5.22,13.36,3.54,26.58,7.63,39.74,11.86,7.2,2.31,10.3,8.87,7.99,15.35-2.27,6.38-9.06,9.48-15.95,6.89-19.69-7.41-40-12.34-60.75-15.63-6.65-1.05-10.74-6.43-10.2-13.06.48-5.8,5.67-10.55,13.43-10.65Z" fill="#F7B103" stroke-width="10px"></path>
  <path class="cls-1" d="M80.59,183.66c11.82,2.57,23.71,4.86,35.43,7.81,5.91,1.49,8.99,8.3,7.38,14.18-1.6,5.82-7.66,9.68-13.63,8.51-10.77-2.12-21.53-4.31-32.28-6.56-6.24-1.31-10.08-7.01-9.23-13.43.76-5.8,6.05-10.09,12.33-10.51Z" fill="#F7B103" stroke-width="10px"></path>
</svg>