<svg xmlns="http://www.w3.org/2000/svg" width="200" height="46" xml:space="preserve"><g fill="#010101"><path d="M8.773 6.071h9.17l7.27 19.149L32.91 6.071h9.266l5.417 35.828H38.28l-2.613-20.623h-.095l-8.601 20.623h-3.707l-8.22-20.623h-.094l-2.994 20.623H2.691L8.773 6.071zM59.093 4.788c.95.951 1.425 2.09 1.425 3.421 0 1.33-.476 2.471-1.425 3.42-.951.95-2.091 1.426-3.421 1.426-1.331 0-2.471-.476-3.421-1.426-.951-.95-1.425-2.09-1.425-3.42 0-1.344.475-2.495 1.425-3.455.95-.959 2.09-1.439 3.421-1.439 1.329.032 2.47.522 3.421 1.473zm.902 37.11h-8.648V17.522h8.648v24.376zM83.277 18.14v7.317a12.117 12.117 0 0 0-2.091-1.164 5.857 5.857 0 0 0-2.375-.499c-1.647 0-3.049.569-4.205 1.71-1.157 1.141-1.734 2.551-1.734 4.229 0 1.742.57 3.176 1.71 4.3 1.14 1.125 2.597 1.688 4.372 1.688.158 0 .324-.009.499-.024.174-.016.34-.039.499-.071a6.861 6.861 0 0 0 1.782-.546 5.815 5.815 0 0 0 1.544-1.021v7.27c-.95.476-1.94.823-2.97 1.046-1.03.221-2.067.332-3.112.332-3.611 0-6.724-1.195-9.337-3.588-2.614-2.392-3.92-5.424-3.92-9.099 0-3.928 1.314-7.12 3.944-9.575 2.629-2.454 5.86-3.682 9.693-3.682 1.013 0 2.003.119 2.97.356.966.238 1.877.594 2.732 1.069l-.001-.048zM97.294 21.514h.095c.823-1.457 1.924-2.534 3.302-3.231 1.378-.696 2.907-1.045 4.584-1.045l1.663-.048v8.316a1.308 1.308 0 0 1-.355-.143 1.45 1.45 0 0 0-.356-.143 6.06 6.06 0 0 0-1.426-.381 11.563 11.563 0 0 0-1.521-.096c-2.407 0-4.007.706-4.798 2.115-.792 1.41-1.188 3.16-1.188 5.25v9.789h-8.648V17.522h8.648v3.992z"/></g><g fill="#010101"><path d="M148.295 33.393c1.076 1.078 1.615 2.393 1.615 3.944 0 1.521-.539 2.819-1.615 3.896-1.077 1.077-2.393 1.616-3.944 1.616s-2.867-.542-3.943-1.623c-1.078-1.081-1.616-2.387-1.616-3.913 0-1.559.539-2.879 1.616-3.96 1.076-1.082 2.392-1.623 3.943-1.623 1.551.032 2.867.586 3.944 1.663zM181.982 41.898h-8.647V39.19h-.095c-.697 1.14-1.647 1.988-2.852 2.542s-2.455.862-3.753.926c-.128.031-.255.048-.381.048h-.38c-3.611 0-6.565-1.29-8.862-3.872-2.296-2.582-3.444-5.614-3.444-9.1 0-3.484 1.133-6.518 3.396-9.099 2.266-2.582 5.204-3.873 8.815-3.873h.475c.159 0 .316.016.476.047a11.11 11.11 0 0 1 3.635.926c1.188.523 2.178 1.259 2.971 2.21v-2.423h8.647l-.001 24.376zm-18.008-15.989c-.981 1.093-1.473 2.384-1.473 3.873 0 1.552.491 2.851 1.473 3.896.981 1.046 2.345 1.568 4.087 1.568 1.773 0 3.144-.524 4.11-1.574.966-1.05 1.449-2.354 1.449-3.913 0-1.496-.483-2.793-1.449-3.89-.967-1.097-2.337-1.646-4.11-1.646-1.743.031-3.106.593-4.087 1.686zM195.478 4.788c.95.95 1.426 2.09 1.426 3.421s-.476 2.471-1.426 3.42c-.95.951-2.091 1.426-3.421 1.426s-2.472-.476-3.421-1.426c-.95-.95-1.426-2.09-1.426-3.42 0-1.344.476-2.495 1.426-3.455.949-.959 2.091-1.439 3.421-1.439 1.33.032 2.469.522 3.421 1.473zm.902 37.11h-8.647V17.522h8.647v24.376z"/></g><linearGradient id="a" gradientUnits="userSpaceOnUse" x1="306.627" y1="-232.263" x2="331.867" y2="-232.263" gradientTransform="matrix(1 0 0 -1 -196 -208)"><stop offset="0" style="stop-color:#ea272a"/><stop offset=".089" style="stop-color:#ee4f26"/><stop offset=".175" style="stop-color:#f16825"/><stop offset=".193" style="stop-color:#ec6b26"/><stop offset=".216" style="stop-color:#e27228"/><stop offset=".241" style="stop-color:#cf7c2b"/><stop offset=".268" style="stop-color:#b48835"/><stop offset=".296" style="stop-color:#8f933b"/><stop offset=".326" style="stop-color:#529e46"/><stop offset=".339" style="stop-color:#0da14b"/><stop offset=".34" style="stop-color:#0ca14c"/><stop offset=".358" style="stop-color:#1ca26b"/><stop offset=".376" style="stop-color:#21a588"/><stop offset=".396" style="stop-color:#2aa69e"/><stop offset=".416" style="stop-color:#2ca6b2"/><stop offset=".437" style="stop-color:#2ca7c1"/><stop offset=".461" style="stop-color:#2ea8ce"/><stop offset=".486" style="stop-color:#2ea8d6"/><stop offset=".516" style="stop-color:#2ca8dd"/><stop offset=".562" style="stop-color:#2aa7df"/><stop offset=".615" style="stop-color:#2ca4dd"/><stop offset=".681" style="stop-color:#289bd7"/><stop offset=".756" style="stop-color:#288dc9"/><stop offset=".835" style="stop-color:#2778ba"/><stop offset=".918" style="stop-color:#2361aa"/><stop offset="1" style="stop-color:#214797"/></linearGradient><path fill="url(#a)" d="m119.286 21.959.013-3.475c.15-.1.249-.269.249-.463a.554.554 0 0 0-.556-.558.557.557 0 0 0-.314 1.019l-.012 3.475a1.19 1.19 0 0 1-.35.832l-1.195 1.186c-.34.336-.532.8-.535 1.276l-.018 4.84a.536.536 0 1 0 .844.439.537.537 0 0 0-.226-.436l.019-4.842c0-.311.13-.616.352-.836l1.193-1.187c.338-.336.534-.798.536-1.27z"/><linearGradient id="b" gradientUnits="userSpaceOnUse" x1="306.628" y1="-240.669" x2="331.865" y2="-240.669" gradientTransform="matrix(1 0 0 -1 -196 -208)"><stop offset="0" style="stop-color:#ea272a"/><stop offset=".089" style="stop-color:#ee4f26"/><stop offset=".175" style="stop-color:#f16825"/><stop offset=".193" style="stop-color:#ec6b26"/><stop offset=".216" style="stop-color:#e27228"/><stop offset=".241" style="stop-color:#cf7c2b"/><stop offset=".268" style="stop-color:#b48835"/><stop offset=".296" style="stop-color:#8f933b"/><stop offset=".326" style="stop-color:#529e46"/><stop offset=".339" style="stop-color:#0da14b"/><stop offset=".34" style="stop-color:#0ca14c"/><stop offset=".358" style="stop-color:#1ca26b"/><stop offset=".376" style="stop-color:#21a588"/><stop offset=".396" style="stop-color:#2aa69e"/><stop offset=".416" style="stop-color:#2ca6b2"/><stop offset=".437" style="stop-color:#2ca7c1"/><stop offset=".461" style="stop-color:#2ea8ce"/><stop offset=".486" style="stop-color:#2ea8d6"/><stop offset=".516" style="stop-color:#2ca8dd"/><stop offset=".562" style="stop-color:#2aa7df"/><stop offset=".615" style="stop-color:#2ca4dd"/><stop offset=".681" style="stop-color:#289bd7"/><stop offset=".756" style="stop-color:#288dc9"/><stop offset=".835" style="stop-color:#2778ba"/><stop offset=".918" style="stop-color:#2361aa"/><stop offset="1" style="stop-color:#214797"/></linearGradient><path fill="url(#b)" d="m119.598 31.977 1.194-1.187c.337-.334.532-.794.533-1.263l.021-5.397c.149-.1.249-.27.251-.463a.56.56 0 0 0-1.118-.003c0 .192.097.365.247.463l-.021 5.397a1.171 1.171 0 0 1-.351.826l-1.195 1.188c-.338.333-.53.799-.533 1.275l-.031 8.437a.538.538 0 0 0 .307.98.54.54 0 0 0 .541-.537.534.534 0 0 0-.229-.44l.031-8.439a1.2 1.2 0 0 1 .353-.837z"/><linearGradient id="c" gradientUnits="userSpaceOnUse" x1="306.628" y1="-241.058" x2="331.865" y2="-241.058" gradientTransform="matrix(1 0 0 -1 -196 -208)"><stop offset="0" style="stop-color:#ea272a"/><stop offset=".089" style="stop-color:#ee4f26"/><stop offset=".175" style="stop-color:#f16825"/><stop offset=".193" style="stop-color:#ec6b26"/><stop offset=".216" style="stop-color:#e27228"/><stop offset=".241" style="stop-color:#cf7c2b"/><stop offset=".268" style="stop-color:#b48835"/><stop offset=".296" style="stop-color:#8f933b"/><stop offset=".326" style="stop-color:#529e46"/><stop offset=".339" style="stop-color:#0da14b"/><stop offset=".34" style="stop-color:#0ca14c"/><stop offset=".358" style="stop-color:#1ca26b"/><stop offset=".376" style="stop-color:#21a588"/><stop offset=".396" style="stop-color:#2aa69e"/><stop offset=".416" style="stop-color:#2ca6b2"/><stop offset=".437" style="stop-color:#2ca7c1"/><stop offset=".461" style="stop-color:#2ea8ce"/><stop offset=".486" style="stop-color:#2ea8d6"/><stop offset=".516" style="stop-color:#2ca8dd"/><stop offset=".562" style="stop-color:#2aa7df"/><stop offset=".615" style="stop-color:#2ca4dd"/><stop offset=".681" style="stop-color:#289bd7"/><stop offset=".756" style="stop-color:#288dc9"/><stop offset=".835" style="stop-color:#2778ba"/><stop offset=".918" style="stop-color:#2361aa"/><stop offset="1" style="stop-color:#214797"/></linearGradient><path fill="url(#c)" d="m110.971 34.508.006-1.558a1.801 1.801 0 0 0-.524-1.276l-.447-.452a.536.536 0 0 0-.526-.633.539.539 0 0 0-.004 1.079c.031 0 .061-.006.091-.01l.447.449c.221.223.347.528.346.84l-.008 1.559a.557.557 0 0 0 .307 1.022.557.557 0 0 0 .312-1.02z"/><linearGradient id="d" gradientUnits="userSpaceOnUse" x1="306.627" y1="-242.738" x2="331.877" y2="-242.738" gradientTransform="matrix(1 0 0 -1 -196 -208)"><stop offset="0" style="stop-color:#ea272a"/><stop offset=".089" style="stop-color:#ee4f26"/><stop offset=".175" style="stop-color:#f16825"/><stop offset=".193" style="stop-color:#ec6b26"/><stop offset=".216" style="stop-color:#e27228"/><stop offset=".241" style="stop-color:#cf7c2b"/><stop offset=".268" style="stop-color:#b48835"/><stop offset=".296" style="stop-color:#8f933b"/><stop offset=".326" style="stop-color:#529e46"/><stop offset=".339" style="stop-color:#0da14b"/><stop offset=".34" style="stop-color:#0ca14c"/><stop offset=".358" style="stop-color:#1ca26b"/><stop offset=".376" style="stop-color:#21a588"/><stop offset=".396" style="stop-color:#2aa69e"/><stop offset=".416" style="stop-color:#2ca6b2"/><stop offset=".437" style="stop-color:#2ca7c1"/><stop offset=".461" style="stop-color:#2ea8ce"/><stop offset=".486" style="stop-color:#2ea8d6"/><stop offset=".516" style="stop-color:#2ca8dd"/><stop offset=".562" style="stop-color:#2aa7df"/><stop offset=".615" style="stop-color:#2ca4dd"/><stop offset=".681" style="stop-color:#289bd7"/><stop offset=".756" style="stop-color:#288dc9"/><stop offset=".835" style="stop-color:#2778ba"/><stop offset=".918" style="stop-color:#2361aa"/><stop offset="1" style="stop-color:#214797"/></linearGradient><path fill="url(#d)" d="m113.028 37.242.018-5.058a.532.532 0 0 0-.305-.97.534.534 0 0 0-.312.968l-.02 5.056a.56.56 0 0 0 .306 1.024.556.556 0 0 0 .313-1.02z"/><linearGradient id="e" gradientUnits="userSpaceOnUse" x1="306.628" y1="-244.596" x2="331.866" y2="-244.596" gradientTransform="matrix(1 0 0 -1 -196 -208)"><stop offset="0" style="stop-color:#ea272a"/><stop offset=".089" style="stop-color:#ee4f26"/><stop offset=".175" style="stop-color:#f16825"/><stop offset=".193" style="stop-color:#ec6b26"/><stop offset=".216" style="stop-color:#e27228"/><stop offset=".241" style="stop-color:#cf7c2b"/><stop offset=".268" style="stop-color:#b48835"/><stop offset=".296" style="stop-color:#8f933b"/><stop offset=".326" style="stop-color:#529e46"/><stop offset=".339" style="stop-color:#0da14b"/><stop offset=".34" style="stop-color:#0ca14c"/><stop offset=".358" style="stop-color:#1ca26b"/><stop offset=".376" style="stop-color:#21a588"/><stop offset=".396" style="stop-color:#2aa69e"/><stop offset=".416" style="stop-color:#2ca6b2"/><stop offset=".437" style="stop-color:#2ca7c1"/><stop offset=".461" style="stop-color:#2ea8ce"/><stop offset=".486" style="stop-color:#2ea8d6"/><stop offset=".516" style="stop-color:#2ca8dd"/><stop offset=".562" style="stop-color:#2aa7df"/><stop offset=".615" style="stop-color:#2ca4dd"/><stop offset=".681" style="stop-color:#289bd7"/><stop offset=".756" style="stop-color:#288dc9"/><stop offset=".835" style="stop-color:#2778ba"/><stop offset=".918" style="stop-color:#2361aa"/><stop offset="1" style="stop-color:#214797"/></linearGradient><path fill="url(#e)" d="m115.089 39.132.018-5.082a.53.53 0 0 0 .227-.432.535.535 0 1 0-.846.431l-.017 5.08a.54.54 0 1 0 .847.444.545.545 0 0 0-.229-.441z"/><linearGradient id="f" gradientUnits="userSpaceOnUse" x1="306.628" y1="-239.413" x2="331.866" y2="-239.413" gradientTransform="matrix(1 0 0 -1 -196 -208)"><stop offset="0" style="stop-color:#ea272a"/><stop offset=".089" style="stop-color:#ee4f26"/><stop offset=".175" style="stop-color:#f16825"/><stop offset=".193" style="stop-color:#ec6b26"/><stop offset=".216" style="stop-color:#e27228"/><stop offset=".241" style="stop-color:#cf7c2b"/><stop offset=".268" style="stop-color:#b48835"/><stop offset=".296" style="stop-color:#8f933b"/><stop offset=".326" style="stop-color:#529e46"/><stop offset=".339" style="stop-color:#0da14b"/><stop offset=".34" style="stop-color:#0ca14c"/><stop offset=".358" style="stop-color:#1ca26b"/><stop offset=".376" style="stop-color:#21a588"/><stop offset=".396" style="stop-color:#2aa69e"/><stop offset=".416" style="stop-color:#2ca6b2"/><stop offset=".437" style="stop-color:#2ca7c1"/><stop offset=".461" style="stop-color:#2ea8ce"/><stop offset=".486" style="stop-color:#2ea8d6"/><stop offset=".516" style="stop-color:#2ca8dd"/><stop offset=".562" style="stop-color:#2aa7df"/><stop offset=".615" style="stop-color:#2ca4dd"/><stop offset=".681" style="stop-color:#289bd7"/><stop offset=".756" style="stop-color:#288dc9"/><stop offset=".835" style="stop-color:#2778ba"/><stop offset=".918" style="stop-color:#2361aa"/><stop offset="1" style="stop-color:#214797"/></linearGradient><path fill="url(#f)" d="m117.151 40.354.024-6.462c0-.474-.189-.938-.524-1.274l-3.247-3.271a1.215 1.215 0 0 1-.345-.852l.022-6.021a.563.563 0 0 0 .251-.462.558.558 0 1 0-.872.459l-.021 6.021c-.003.482.188.953.524 1.291l3.245 3.27c.22.223.346.528.345.838l-.023 6.462a.557.557 0 1 0 .621.001z"/><linearGradient id="g" gradientUnits="userSpaceOnUse" x1="306.629" y1="-245.394" x2="331.865" y2="-245.394" gradientTransform="matrix(1 0 0 -1 -196 -208)"><stop offset="0" style="stop-color:#ea272a"/><stop offset=".089" style="stop-color:#ee4f26"/><stop offset=".175" style="stop-color:#f16825"/><stop offset=".193" style="stop-color:#ec6b26"/><stop offset=".216" style="stop-color:#e27228"/><stop offset=".241" style="stop-color:#cf7c2b"/><stop offset=".268" style="stop-color:#b48835"/><stop offset=".296" style="stop-color:#8f933b"/><stop offset=".326" style="stop-color:#529e46"/><stop offset=".339" style="stop-color:#0da14b"/><stop offset=".34" style="stop-color:#0ca14c"/><stop offset=".358" style="stop-color:#1ca26b"/><stop offset=".376" style="stop-color:#21a588"/><stop offset=".396" style="stop-color:#2aa69e"/><stop offset=".416" style="stop-color:#2ca6b2"/><stop offset=".437" style="stop-color:#2ca7c1"/><stop offset=".461" style="stop-color:#2ea8ce"/><stop offset=".486" style="stop-color:#2ea8d6"/><stop offset=".516" style="stop-color:#2ca8dd"/><stop offset=".562" style="stop-color:#2aa7df"/><stop offset=".615" style="stop-color:#2ca4dd"/><stop offset=".681" style="stop-color:#289bd7"/><stop offset=".756" style="stop-color:#288dc9"/><stop offset=".835" style="stop-color:#2778ba"/><stop offset=".918" style="stop-color:#2361aa"/><stop offset="1" style="stop-color:#214797"/></linearGradient><path fill="url(#g)" d="m123.349 41.493.011-2.876a1.813 1.813 0 0 0-.524-1.277l-1.187-1.195a1.18 1.18 0 0 1-.345-.834l.009-2.013c.149-.1.249-.27.25-.462a.558.558 0 1 0-.871.46l-.009 2.014c-.003.471.189.934.525 1.272l1.186 1.194c.222.223.347.526.345.84l-.01 2.872a.558.558 0 1 0 .62.005z"/><linearGradient id="h" gradientUnits="userSpaceOnUse" x1="306.647" y1="-242.505" x2="331.861" y2="-242.505" gradientTransform="matrix(1 0 0 -1 -196 -208)"><stop offset="0" style="stop-color:#ea272a"/><stop offset=".089" style="stop-color:#ee4f26"/><stop offset=".175" style="stop-color:#f16825"/><stop offset=".193" style="stop-color:#ec6b26"/><stop offset=".216" style="stop-color:#e27228"/><stop offset=".241" style="stop-color:#cf7c2b"/><stop offset=".268" style="stop-color:#b48835"/><stop offset=".296" style="stop-color:#8f933b"/><stop offset=".326" style="stop-color:#529e46"/><stop offset=".339" style="stop-color:#0da14b"/><stop offset=".34" style="stop-color:#0ca14c"/><stop offset=".358" style="stop-color:#1ca26b"/><stop offset=".376" style="stop-color:#21a588"/><stop offset=".396" style="stop-color:#2aa69e"/><stop offset=".416" style="stop-color:#2ca6b2"/><stop offset=".437" style="stop-color:#2ca7c1"/><stop offset=".461" style="stop-color:#2ea8ce"/><stop offset=".486" style="stop-color:#2ea8d6"/><stop offset=".516" style="stop-color:#2ca8dd"/><stop offset=".562" style="stop-color:#2aa7df"/><stop offset=".615" style="stop-color:#2ca4dd"/><stop offset=".681" style="stop-color:#289bd7"/><stop offset=".756" style="stop-color:#288dc9"/><stop offset=".835" style="stop-color:#2778ba"/><stop offset=".918" style="stop-color:#2361aa"/><stop offset="1" style="stop-color:#214797"/></linearGradient><path fill="url(#h)" d="m131.635 37.312.02-5.607a.558.558 0 1 0-.62-.002l-.021 5.605a.56.56 0 0 0 .307 1.023.556.556 0 0 0 .314-1.019z"/><linearGradient id="i" gradientUnits="userSpaceOnUse" x1="306.628" y1="-236.133" x2="331.866" y2="-236.133" gradientTransform="matrix(1 0 0 -1 -196 -208)"><stop offset="0" style="stop-color:#ea272a"/><stop offset=".089" style="stop-color:#ee4f26"/><stop offset=".175" style="stop-color:#f16825"/><stop offset=".193" style="stop-color:#ec6b26"/><stop offset=".216" style="stop-color:#e27228"/><stop offset=".241" style="stop-color:#cf7c2b"/><stop offset=".268" style="stop-color:#b48835"/><stop offset=".296" style="stop-color:#8f933b"/><stop offset=".326" style="stop-color:#529e46"/><stop offset=".339" style="stop-color:#0da14b"/><stop offset=".34" style="stop-color:#0ca14c"/><stop offset=".358" style="stop-color:#1ca26b"/><stop offset=".376" style="stop-color:#21a588"/><stop offset=".396" style="stop-color:#2aa69e"/><stop offset=".416" style="stop-color:#2ca6b2"/><stop offset=".437" style="stop-color:#2ca7c1"/><stop offset=".461" style="stop-color:#2ea8ce"/><stop offset=".486" style="stop-color:#2ea8d6"/><stop offset=".516" style="stop-color:#2ca8dd"/><stop offset=".562" style="stop-color:#2aa7df"/><stop offset=".615" style="stop-color:#2ca4dd"/><stop offset=".681" style="stop-color:#289bd7"/><stop offset=".756" style="stop-color:#288dc9"/><stop offset=".835" style="stop-color:#2778ba"/><stop offset=".918" style="stop-color:#2361aa"/><stop offset="1" style="stop-color:#214797"/></linearGradient><path fill="url(#i)" d="m133.714 33.726.012-2.883a1.818 1.818 0 0 0-.523-1.277l-1.187-1.196a1.197 1.197 0 0 1-.345-.849l.017-4.977a.564.564 0 0 0 .252-.464.56.56 0 0 0-1.117-.004.561.561 0 0 0 .245.465l-.017 4.979c-.003.479.188.947.524 1.285L132.762 30c.22.222.346.527.344.841l-.011 2.882a.558.558 0 1 0 .868.466.558.558 0 0 0-.249-.463z"/><linearGradient id="j" gradientUnits="userSpaceOnUse" x1="306.633" y1="-234.662" x2="331.866" y2="-234.662" gradientTransform="matrix(1 0 0 -1 -196 -208)"><stop offset="0" style="stop-color:#ea272a"/><stop offset=".089" style="stop-color:#ee4f26"/><stop offset=".175" style="stop-color:#f16825"/><stop offset=".193" style="stop-color:#ec6b26"/><stop offset=".216" style="stop-color:#e27228"/><stop offset=".241" style="stop-color:#cf7c2b"/><stop offset=".268" style="stop-color:#b48835"/><stop offset=".296" style="stop-color:#8f933b"/><stop offset=".326" style="stop-color:#529e46"/><stop offset=".339" style="stop-color:#0da14b"/><stop offset=".34" style="stop-color:#0ca14c"/><stop offset=".358" style="stop-color:#1ca26b"/><stop offset=".376" style="stop-color:#21a588"/><stop offset=".396" style="stop-color:#2aa69e"/><stop offset=".416" style="stop-color:#2ca6b2"/><stop offset=".437" style="stop-color:#2ca7c1"/><stop offset=".461" style="stop-color:#2ea8ce"/><stop offset=".486" style="stop-color:#2ea8d6"/><stop offset=".516" style="stop-color:#2ca8dd"/><stop offset=".562" style="stop-color:#2aa7df"/><stop offset=".615" style="stop-color:#2ca4dd"/><stop offset=".681" style="stop-color:#289bd7"/><stop offset=".756" style="stop-color:#288dc9"/><stop offset=".835" style="stop-color:#2778ba"/><stop offset=".918" style="stop-color:#2361aa"/><stop offset="1" style="stop-color:#214797"/></linearGradient><path fill="url(#j)" d="M134.68 27.83a.565.565 0 0 0-.165.028l-.429-.433a1.192 1.192 0 0 1-.346-.841l.003-1.185a.558.558 0 1 0-.619-.003l-.004 1.187c-.003.474.188.941.523 1.279l.479.482-.005.041a.559.559 0 1 0 .563-.555z"/><linearGradient id="k" gradientUnits="userSpaceOnUse" x1="306.628" y1="-238.525" x2="331.866" y2="-238.525" gradientTransform="matrix(1 0 0 -1 -196 -208)"><stop offset="0" style="stop-color:#ea272a"/><stop offset=".089" style="stop-color:#ee4f26"/><stop offset=".175" style="stop-color:#f16825"/><stop offset=".193" style="stop-color:#ec6b26"/><stop offset=".216" style="stop-color:#e27228"/><stop offset=".241" style="stop-color:#cf7c2b"/><stop offset=".268" style="stop-color:#b48835"/><stop offset=".296" style="stop-color:#8f933b"/><stop offset=".326" style="stop-color:#529e46"/><stop offset=".339" style="stop-color:#0da14b"/><stop offset=".34" style="stop-color:#0ca14c"/><stop offset=".358" style="stop-color:#1ca26b"/><stop offset=".376" style="stop-color:#21a588"/><stop offset=".396" style="stop-color:#2aa69e"/><stop offset=".416" style="stop-color:#2ca6b2"/><stop offset=".437" style="stop-color:#2ca7c1"/><stop offset=".461" style="stop-color:#2ea8ce"/><stop offset=".486" style="stop-color:#2ea8d6"/><stop offset=".516" style="stop-color:#2ca8dd"/><stop offset=".562" style="stop-color:#2aa7df"/><stop offset=".615" style="stop-color:#2ca4dd"/><stop offset=".681" style="stop-color:#289bd7"/><stop offset=".756" style="stop-color:#288dc9"/><stop offset=".835" style="stop-color:#2778ba"/><stop offset=".918" style="stop-color:#2361aa"/><stop offset="1" style="stop-color:#214797"/></linearGradient><path fill="url(#k)" d="M129.322 19.654a.558.558 0 0 0-.315 1.018l-.043 11.895a1.188 1.188 0 0 1-.351.837l-1.195 1.188a1.829 1.829 0 0 0-.534 1.274l-.017 4.548a.54.54 0 1 0 .62.003l.018-4.548c0-.313.128-.618.349-.838l1.196-1.186a1.82 1.82 0 0 0 .534-1.277l.042-11.892a.556.556 0 0 0-.304-1.022z"/><linearGradient id="l" gradientUnits="userSpaceOnUse" x1="306.63" y1="-238.293" x2="331.864" y2="-238.293" gradientTransform="matrix(1 0 0 -1 -196 -208)"><stop offset="0" style="stop-color:#ea272a"/><stop offset=".089" style="stop-color:#ee4f26"/><stop offset=".175" style="stop-color:#f16825"/><stop offset=".193" style="stop-color:#ec6b26"/><stop offset=".216" style="stop-color:#e27228"/><stop offset=".241" style="stop-color:#cf7c2b"/><stop offset=".268" style="stop-color:#b48835"/><stop offset=".296" style="stop-color:#8f933b"/><stop offset=".326" style="stop-color:#529e46"/><stop offset=".339" style="stop-color:#0da14b"/><stop offset=".34" style="stop-color:#0ca14c"/><stop offset=".358" style="stop-color:#1ca26b"/><stop offset=".376" style="stop-color:#21a588"/><stop offset=".396" style="stop-color:#2aa69e"/><stop offset=".416" style="stop-color:#2ca6b2"/><stop offset=".437" style="stop-color:#2ca7c1"/><stop offset=".461" style="stop-color:#2ea8ce"/><stop offset=".486" style="stop-color:#2ea8d6"/><stop offset=".516" style="stop-color:#2ca8dd"/><stop offset=".562" style="stop-color:#2aa7df"/><stop offset=".615" style="stop-color:#2ca4dd"/><stop offset=".681" style="stop-color:#289bd7"/><stop offset=".756" style="stop-color:#288dc9"/><stop offset=".835" style="stop-color:#2778ba"/><stop offset=".918" style="stop-color:#2361aa"/><stop offset="1" style="stop-color:#214797"/></linearGradient><path fill="url(#l)" d="M123.655 25.514a.555.555 0 0 0-.557-.558.555.555 0 0 0-.313 1.018l-.03 8.634a.557.557 0 1 0 .619.002l.031-8.632a.55.55 0 0 0 .25-.464z"/><linearGradient id="m" gradientUnits="userSpaceOnUse" x1="306.633" y1="-244.135" x2="331.861" y2="-244.135" gradientTransform="matrix(1 0 0 -1 -196 -208)"><stop offset="0" style="stop-color:#ea272a"/><stop offset=".089" style="stop-color:#ee4f26"/><stop offset=".175" style="stop-color:#f16825"/><stop offset=".193" style="stop-color:#ec6b26"/><stop offset=".216" style="stop-color:#e27228"/><stop offset=".241" style="stop-color:#cf7c2b"/><stop offset=".268" style="stop-color:#b48835"/><stop offset=".296" style="stop-color:#8f933b"/><stop offset=".326" style="stop-color:#529e46"/><stop offset=".339" style="stop-color:#0da14b"/><stop offset=".34" style="stop-color:#0ca14c"/><stop offset=".358" style="stop-color:#1ca26b"/><stop offset=".376" style="stop-color:#21a588"/><stop offset=".396" style="stop-color:#2aa69e"/><stop offset=".416" style="stop-color:#2ca6b2"/><stop offset=".437" style="stop-color:#2ca7c1"/><stop offset=".461" style="stop-color:#2ea8ce"/><stop offset=".486" style="stop-color:#2ea8d6"/><stop offset=".516" style="stop-color:#2ca8dd"/><stop offset=".562" style="stop-color:#2aa7df"/><stop offset=".615" style="stop-color:#2ca4dd"/><stop offset=".681" style="stop-color:#289bd7"/><stop offset=".756" style="stop-color:#288dc9"/><stop offset=".835" style="stop-color:#2778ba"/><stop offset=".918" style="stop-color:#2361aa"/><stop offset="1" style="stop-color:#214797"/></linearGradient><path fill="url(#m)" d="M125.704 30.559a.557.557 0 1 0-.869.46l-.039 10.231a.56.56 0 0 0-.247.463.557.557 0 1 0 .869-.462l.037-10.231a.548.548 0 0 0 .249-.461z"/><linearGradient id="n" gradientUnits="userSpaceOnUse" x1="306.642" y1="-228.184" x2="331.857" y2="-228.184" gradientTransform="matrix(1 0 0 -1 -196 -208)"><stop offset="0" style="stop-color:#ea272a"/><stop offset=".089" style="stop-color:#ee4f26"/><stop offset=".175" style="stop-color:#f16825"/><stop offset=".193" style="stop-color:#ec6b26"/><stop offset=".216" style="stop-color:#e27228"/><stop offset=".241" style="stop-color:#cf7c2b"/><stop offset=".268" style="stop-color:#b48835"/><stop offset=".296" style="stop-color:#8f933b"/><stop offset=".326" style="stop-color:#529e46"/><stop offset=".339" style="stop-color:#0da14b"/><stop offset=".34" style="stop-color:#0ca14c"/><stop offset=".358" style="stop-color:#1ca26b"/><stop offset=".376" style="stop-color:#21a588"/><stop offset=".396" style="stop-color:#2aa69e"/><stop offset=".416" style="stop-color:#2ca6b2"/><stop offset=".437" style="stop-color:#2ca7c1"/><stop offset=".461" style="stop-color:#2ea8ce"/><stop offset=".486" style="stop-color:#2ea8d6"/><stop offset=".516" style="stop-color:#2ca8dd"/><stop offset=".562" style="stop-color:#2aa7df"/><stop offset=".615" style="stop-color:#2ca4dd"/><stop offset=".681" style="stop-color:#289bd7"/><stop offset=".756" style="stop-color:#288dc9"/><stop offset=".835" style="stop-color:#2778ba"/><stop offset=".918" style="stop-color:#2361aa"/><stop offset="1" style="stop-color:#214797"/></linearGradient><path fill="url(#n)" d="M124.62 22.303a.558.558 0 1 0 .87-.461l.012-3.364a.535.535 0 0 0-.305-.971.534.534 0 0 0-.313.97l-.012 3.364a.545.545 0 0 0-.252.462z"/><linearGradient id="o" gradientUnits="userSpaceOnUse" x1="306.629" y1="-233.206" x2="331.865" y2="-233.206" gradientTransform="matrix(1 0 0 -1 -196 -208)"><stop offset="0" style="stop-color:#ea272a"/><stop offset=".089" style="stop-color:#ee4f26"/><stop offset=".175" style="stop-color:#f16825"/><stop offset=".193" style="stop-color:#ec6b26"/><stop offset=".216" style="stop-color:#e27228"/><stop offset=".241" style="stop-color:#cf7c2b"/><stop offset=".268" style="stop-color:#b48835"/><stop offset=".296" style="stop-color:#8f933b"/><stop offset=".326" style="stop-color:#529e46"/><stop offset=".339" style="stop-color:#0da14b"/><stop offset=".34" style="stop-color:#0ca14c"/><stop offset=".358" style="stop-color:#1ca26b"/><stop offset=".376" style="stop-color:#21a588"/><stop offset=".396" style="stop-color:#2aa69e"/><stop offset=".416" style="stop-color:#2ca6b2"/><stop offset=".437" style="stop-color:#2ca7c1"/><stop offset=".461" style="stop-color:#2ea8ce"/><stop offset=".486" style="stop-color:#2ea8d6"/><stop offset=".516" style="stop-color:#2ca8dd"/><stop offset=".562" style="stop-color:#2aa7df"/><stop offset=".615" style="stop-color:#2ca4dd"/><stop offset=".681" style="stop-color:#289bd7"/><stop offset=".756" style="stop-color:#288dc9"/><stop offset=".835" style="stop-color:#2778ba"/><stop offset=".918" style="stop-color:#2361aa"/><stop offset="1" style="stop-color:#214797"/></linearGradient><path fill="url(#o)" d="M126.648 32.669a.558.558 0 1 0 .869-.46l.01-1.903a1.822 1.822 0 0 0-.525-1.279l-1.187-1.194a1.19 1.19 0 0 1-.344-.84l.005-1.33a1.835 1.835 0 0 0-.521-1.28l-3.223-3.295a1.213 1.213 0 0 1-.341-.846l.007-2.032a.56.56 0 0 0-.306-1.024.56.56 0 0 0-.315 1.022l-.006 2.032c-.001.476.187.943.517 1.28l3.225 3.298c.218.224.343.531.342.844l-.005 1.33c-.002.476.189.942.524 1.278l1.187 1.197c.219.222.345.527.344.84l-.009 1.902a.555.555 0 0 0-.248.46z"/><linearGradient id="p" gradientUnits="userSpaceOnUse" x1="306.614" y1="-230.814" x2="331.873" y2="-230.814" gradientTransform="matrix(1 0 0 -1 -196 -208)"><stop offset="0" style="stop-color:#ea272a"/><stop offset=".089" style="stop-color:#ee4f26"/><stop offset=".175" style="stop-color:#f16825"/><stop offset=".193" style="stop-color:#ec6b26"/><stop offset=".216" style="stop-color:#e27228"/><stop offset=".241" style="stop-color:#cf7c2b"/><stop offset=".268" style="stop-color:#b48835"/><stop offset=".296" style="stop-color:#8f933b"/><stop offset=".326" style="stop-color:#529e46"/><stop offset=".339" style="stop-color:#0da14b"/><stop offset=".34" style="stop-color:#0ca14c"/><stop offset=".358" style="stop-color:#1ca26b"/><stop offset=".376" style="stop-color:#21a588"/><stop offset=".396" style="stop-color:#2aa69e"/><stop offset=".416" style="stop-color:#2ca6b2"/><stop offset=".437" style="stop-color:#2ca7c1"/><stop offset=".461" style="stop-color:#2ea8ce"/><stop offset=".486" style="stop-color:#2ea8d6"/><stop offset=".516" style="stop-color:#2ca8dd"/><stop offset=".562" style="stop-color:#2aa7df"/><stop offset=".615" style="stop-color:#2ca4dd"/><stop offset=".681" style="stop-color:#289bd7"/><stop offset=".756" style="stop-color:#288dc9"/><stop offset=".835" style="stop-color:#2778ba"/><stop offset=".918" style="stop-color:#2361aa"/><stop offset="1" style="stop-color:#214797"/></linearGradient><path fill="url(#p)" d="M126.671 26.66a.558.558 0 1 0 .87-.462l.024-6.77a.556.556 0 0 0-.304-1.022.56.56 0 0 0-.562.556.553.553 0 0 0 .246.464l-.023 6.77a.558.558 0 0 0-.251.464z"/><linearGradient id="q" gradientUnits="userSpaceOnUse" x1="306.639" y1="-245.762" x2="331.862" y2="-245.762" gradientTransform="matrix(1 0 0 -1 -196 -208)"><stop offset="0" style="stop-color:#ea272a"/><stop offset=".089" style="stop-color:#ee4f26"/><stop offset=".175" style="stop-color:#f16825"/><stop offset=".193" style="stop-color:#ec6b26"/><stop offset=".216" style="stop-color:#e27228"/><stop offset=".241" style="stop-color:#cf7c2b"/><stop offset=".268" style="stop-color:#b48835"/><stop offset=".296" style="stop-color:#8f933b"/><stop offset=".326" style="stop-color:#529e46"/><stop offset=".339" style="stop-color:#0da14b"/><stop offset=".34" style="stop-color:#0ca14c"/><stop offset=".358" style="stop-color:#1ca26b"/><stop offset=".376" style="stop-color:#21a588"/><stop offset=".396" style="stop-color:#2aa69e"/><stop offset=".416" style="stop-color:#2ca6b2"/><stop offset=".437" style="stop-color:#2ca7c1"/><stop offset=".461" style="stop-color:#2ea8ce"/><stop offset=".486" style="stop-color:#2ea8d6"/><stop offset=".516" style="stop-color:#2ca8dd"/><stop offset=".562" style="stop-color:#2aa7df"/><stop offset=".615" style="stop-color:#2ca4dd"/><stop offset=".681" style="stop-color:#289bd7"/><stop offset=".756" style="stop-color:#288dc9"/><stop offset=".835" style="stop-color:#2778ba"/><stop offset=".918" style="stop-color:#2361aa"/><stop offset="1" style="stop-color:#214797"/></linearGradient><path fill="url(#q)" d="M129.818 35.901a.557.557 0 1 0-1.114-.003c0 .192.098.364.246.464l-.011 2.795a.56.56 0 0 0 .306 1.025.558.558 0 0 0 .316-1.021l.01-2.797a.556.556 0 0 0 .247-.463z"/><linearGradient id="r" gradientUnits="userSpaceOnUse" x1="306.627" y1="-248.333" x2="331.867" y2="-248.333" gradientTransform="matrix(1 0 0 -1 -196 -208)"><stop offset="0" style="stop-color:#ea272a"/><stop offset=".089" style="stop-color:#ee4f26"/><stop offset=".175" style="stop-color:#f16825"/><stop offset=".193" style="stop-color:#ec6b26"/><stop offset=".216" style="stop-color:#e27228"/><stop offset=".241" style="stop-color:#cf7c2b"/><stop offset=".268" style="stop-color:#b48835"/><stop offset=".296" style="stop-color:#8f933b"/><stop offset=".326" style="stop-color:#529e46"/><stop offset=".339" style="stop-color:#0da14b"/><stop offset=".34" style="stop-color:#0ca14c"/><stop offset=".358" style="stop-color:#1ca26b"/><stop offset=".376" style="stop-color:#21a588"/><stop offset=".396" style="stop-color:#2aa69e"/><stop offset=".416" style="stop-color:#2ca6b2"/><stop offset=".437" style="stop-color:#2ca7c1"/><stop offset=".461" style="stop-color:#2ea8ce"/><stop offset=".486" style="stop-color:#2ea8d6"/><stop offset=".516" style="stop-color:#2ca8dd"/><stop offset=".562" style="stop-color:#2aa7df"/><stop offset=".615" style="stop-color:#2ca4dd"/><stop offset=".681" style="stop-color:#289bd7"/><stop offset=".756" style="stop-color:#288dc9"/><stop offset=".835" style="stop-color:#2778ba"/><stop offset=".918" style="stop-color:#2361aa"/><stop offset="1" style="stop-color:#214797"/></linearGradient><path fill="url(#r)" d="M121.54 38.72a.56.56 0 1 0-.869.463l-.009 2.3a.557.557 0 1 0 .865.466.56.56 0 0 0-.245-.464l.007-2.301a.557.557 0 0 0 .251-.464z"/><linearGradient id="s" gradientUnits="userSpaceOnUse" x1="306.619" y1="-235.25" x2="331.881" y2="-235.25" gradientTransform="matrix(1 0 0 -1 -196 -208)"><stop offset="0" style="stop-color:#ea272a"/><stop offset=".089" style="stop-color:#ee4f26"/><stop offset=".175" style="stop-color:#f16825"/><stop offset=".193" style="stop-color:#ec6b26"/><stop offset=".216" style="stop-color:#e27228"/><stop offset=".241" style="stop-color:#cf7c2b"/><stop offset=".268" style="stop-color:#b48835"/><stop offset=".296" style="stop-color:#8f933b"/><stop offset=".326" style="stop-color:#529e46"/><stop offset=".339" style="stop-color:#0da14b"/><stop offset=".34" style="stop-color:#0ca14c"/><stop offset=".358" style="stop-color:#1ca26b"/><stop offset=".376" style="stop-color:#21a588"/><stop offset=".396" style="stop-color:#2aa69e"/><stop offset=".416" style="stop-color:#2ca6b2"/><stop offset=".437" style="stop-color:#2ca7c1"/><stop offset=".461" style="stop-color:#2ea8ce"/><stop offset=".486" style="stop-color:#2ea8d6"/><stop offset=".516" style="stop-color:#2ca8dd"/><stop offset=".562" style="stop-color:#2aa7df"/><stop offset=".615" style="stop-color:#2ca4dd"/><stop offset=".681" style="stop-color:#289bd7"/><stop offset=".756" style="stop-color:#288dc9"/><stop offset=".835" style="stop-color:#2778ba"/><stop offset=".918" style="stop-color:#2361aa"/><stop offset="1" style="stop-color:#214797"/></linearGradient><path fill="url(#s)" d="M118.414 29.045a.536.536 0 0 0 .534.535.531.531 0 0 0 .312-.965l.012-2.728a.524.524 0 0 0 .225-.431.535.535 0 0 0-1.068-.005.545.545 0 0 0 .222.435l-.009 2.726a.546.546 0 0 0-.228.433z"/><linearGradient id="t" gradientUnits="userSpaceOnUse" x1="306.631" y1="-228.259" x2="331.858" y2="-228.259" gradientTransform="matrix(1 0 0 -1 -196 -208)"><stop offset="0" style="stop-color:#ea272a"/><stop offset=".089" style="stop-color:#ee4f26"/><stop offset=".175" style="stop-color:#f16825"/><stop offset=".193" style="stop-color:#ec6b26"/><stop offset=".216" style="stop-color:#e27228"/><stop offset=".241" style="stop-color:#cf7c2b"/><stop offset=".268" style="stop-color:#b48835"/><stop offset=".296" style="stop-color:#8f933b"/><stop offset=".326" style="stop-color:#529e46"/><stop offset=".339" style="stop-color:#0da14b"/><stop offset=".34" style="stop-color:#0ca14c"/><stop offset=".358" style="stop-color:#1ca26b"/><stop offset=".376" style="stop-color:#21a588"/><stop offset=".396" style="stop-color:#2aa69e"/><stop offset=".416" style="stop-color:#2ca6b2"/><stop offset=".437" style="stop-color:#2ca7c1"/><stop offset=".461" style="stop-color:#2ea8ce"/><stop offset=".486" style="stop-color:#2ea8d6"/><stop offset=".516" style="stop-color:#2ca8dd"/><stop offset=".562" style="stop-color:#2aa7df"/><stop offset=".615" style="stop-color:#2ca4dd"/><stop offset=".681" style="stop-color:#289bd7"/><stop offset=".756" style="stop-color:#288dc9"/><stop offset=".835" style="stop-color:#2778ba"/><stop offset=".918" style="stop-color:#2361aa"/><stop offset="1" style="stop-color:#214797"/></linearGradient><path fill="url(#t)" d="M116.352 21.789a.558.558 0 1 0 .871-.459l.008-2.137a.558.558 0 1 0-.62-.003l-.007 2.136c-.153.1-.25.27-.252.463z"/><linearGradient id="u" gradientUnits="userSpaceOnUse" x1="306.628" y1="-226.92" x2="331.866" y2="-226.92" gradientTransform="matrix(1 0 0 -1 -196 -208)"><stop offset="0" style="stop-color:#ea272a"/><stop offset=".089" style="stop-color:#ee4f26"/><stop offset=".175" style="stop-color:#f16825"/><stop offset=".193" style="stop-color:#ec6b26"/><stop offset=".216" style="stop-color:#e27228"/><stop offset=".241" style="stop-color:#cf7c2b"/><stop offset=".268" style="stop-color:#b48835"/><stop offset=".296" style="stop-color:#8f933b"/><stop offset=".326" style="stop-color:#529e46"/><stop offset=".339" style="stop-color:#0da14b"/><stop offset=".34" style="stop-color:#0ca14c"/><stop offset=".358" style="stop-color:#1ca26b"/><stop offset=".376" style="stop-color:#21a588"/><stop offset=".396" style="stop-color:#2aa69e"/><stop offset=".416" style="stop-color:#2ca6b2"/><stop offset=".437" style="stop-color:#2ca7c1"/><stop offset=".461" style="stop-color:#2ea8ce"/><stop offset=".486" style="stop-color:#2ea8d6"/><stop offset=".516" style="stop-color:#2ca8dd"/><stop offset=".562" style="stop-color:#2aa7df"/><stop offset=".615" style="stop-color:#2ca4dd"/><stop offset=".681" style="stop-color:#289bd7"/><stop offset=".756" style="stop-color:#288dc9"/><stop offset=".835" style="stop-color:#2778ba"/><stop offset=".918" style="stop-color:#2361aa"/><stop offset="1" style="stop-color:#214797"/></linearGradient><path fill="url(#u)" d="m122.816 18.074-.009 1.688a.539.539 0 1 0 .619.002l.007-1.689a.54.54 0 1 0-.847-.444.544.544 0 0 0 .23.443z"/><linearGradient id="v" gradientUnits="userSpaceOnUse" x1="306.628" y1="-232.277" x2="331.864" y2="-232.277" gradientTransform="matrix(1 0 0 -1 -196 -208)"><stop offset="0" style="stop-color:#ea272a"/><stop offset=".089" style="stop-color:#ee4f26"/><stop offset=".175" style="stop-color:#f16825"/><stop offset=".193" style="stop-color:#ec6b26"/><stop offset=".216" style="stop-color:#e27228"/><stop offset=".241" style="stop-color:#cf7c2b"/><stop offset=".268" style="stop-color:#b48835"/><stop offset=".296" style="stop-color:#8f933b"/><stop offset=".326" style="stop-color:#529e46"/><stop offset=".339" style="stop-color:#0da14b"/><stop offset=".34" style="stop-color:#0ca14c"/><stop offset=".358" style="stop-color:#1ca26b"/><stop offset=".376" style="stop-color:#21a588"/><stop offset=".396" style="stop-color:#2aa69e"/><stop offset=".416" style="stop-color:#2ca6b2"/><stop offset=".437" style="stop-color:#2ca7c1"/><stop offset=".461" style="stop-color:#2ea8ce"/><stop offset=".486" style="stop-color:#2ea8d6"/><stop offset=".516" style="stop-color:#2ca8dd"/><stop offset=".562" style="stop-color:#2aa7df"/><stop offset=".615" style="stop-color:#2ca4dd"/><stop offset=".681" style="stop-color:#289bd7"/><stop offset=".756" style="stop-color:#288dc9"/><stop offset=".835" style="stop-color:#2778ba"/><stop offset=".918" style="stop-color:#2361aa"/><stop offset="1" style="stop-color:#214797"/></linearGradient><path fill="url(#v)" d="m114.536 20.621-.017 5.078h.011c-.012.165-.013.52-.018 1.357l-.004.916a.54.54 0 1 0 .621.003c.002-.653.006-1.839.009-2.179l.019-5.172a.566.566 0 0 0 .25-.462.56.56 0 0 0-1.117-.006c0 .194.1.364.246.465z"/><linearGradient id="w" gradientUnits="userSpaceOnUse" x1="306.629" y1="-235.347" x2="331.875" y2="-235.347" gradientTransform="matrix(1 0 0 -1 -196 -208)"><stop offset="0" style="stop-color:#ea272a"/><stop offset=".089" style="stop-color:#ee4f26"/><stop offset=".175" style="stop-color:#f16825"/><stop offset=".193" style="stop-color:#ec6b26"/><stop offset=".216" style="stop-color:#e27228"/><stop offset=".241" style="stop-color:#cf7c2b"/><stop offset=".268" style="stop-color:#b48835"/><stop offset=".296" style="stop-color:#8f933b"/><stop offset=".326" style="stop-color:#529e46"/><stop offset=".339" style="stop-color:#0da14b"/><stop offset=".34" style="stop-color:#0ca14c"/><stop offset=".358" style="stop-color:#1ca26b"/><stop offset=".376" style="stop-color:#21a588"/><stop offset=".396" style="stop-color:#2aa69e"/><stop offset=".416" style="stop-color:#2ca6b2"/><stop offset=".437" style="stop-color:#2ca7c1"/><stop offset=".461" style="stop-color:#2ea8ce"/><stop offset=".486" style="stop-color:#2ea8d6"/><stop offset=".516" style="stop-color:#2ca8dd"/><stop offset=".562" style="stop-color:#2aa7df"/><stop offset=".615" style="stop-color:#2ca4dd"/><stop offset=".681" style="stop-color:#289bd7"/><stop offset=".756" style="stop-color:#288dc9"/><stop offset=".835" style="stop-color:#2778ba"/><stop offset=".918" style="stop-color:#2361aa"/><stop offset="1" style="stop-color:#214797"/></linearGradient><path fill="url(#w)" d="M110.694 24.913a.559.559 0 0 0-.312 1.021l-.011 2.875a.535.535 0 1 0 .617.002l.012-2.873a.558.558 0 0 0-.306-1.025z"/></svg>