<?xml version="1.0" encoding="UTF-8"?> <!-- Generator: Adobe Illustrator 16.0.0, SVG Export Plug-In . SVG Version: 6.00 Build 0) --> <svg xmlns="http://www.w3.org/2000/svg" xmlns:xlink="http://www.w3.org/1999/xlink" version="1.1" id="Layer_1" x="0px" y="0px" width="200px" height="46px" viewBox="0 0 200 46" xml:space="preserve"> <g> <g> <path fill="#FFFFFF" d="M8.773,6.571h9.17l7.27,19.149l7.698-19.149h9.266l5.417,35.828h-9.313l-2.614-20.622h-0.095l-8.6,20.622 h-3.707l-8.221-20.622H14.95l-2.994,20.622H2.691L8.773,6.571z"></path> <path fill="#FFFFFF" d="M59.092,5.288c0.95,0.95,1.426,2.09,1.426,3.421c0,1.331-0.476,2.471-1.426,3.421 s-2.091,1.425-3.421,1.425c-1.331,0-2.471-0.475-3.421-1.425c-0.951-0.951-1.425-2.09-1.425-3.421 c0-1.343,0.475-2.494,1.425-3.455c0.95-0.959,2.09-1.439,3.421-1.439C57.001,3.847,58.142,4.337,59.092,5.288z M59.995,42.398 h-8.648V18.022h8.648V42.398z"></path> <path fill="#FFFFFF" d="M83.277,18.64v7.317c-0.634-0.443-1.33-0.831-2.091-1.164c-0.76-0.333-1.552-0.499-2.375-0.499 c-1.647,0-3.049,0.57-4.205,1.71c-1.157,1.141-1.734,2.551-1.734,4.229c0,1.742,0.57,3.176,1.71,4.301 c1.14,1.124,2.597,1.687,4.372,1.687c0.158,0,0.324-0.009,0.499-0.024c0.174-0.016,0.34-0.039,0.499-0.071 c0.601-0.095,1.195-0.277,1.782-0.546c0.585-0.269,1.101-0.609,1.544-1.021v7.271c-0.95,0.476-1.94,0.822-2.97,1.045 c-1.03,0.221-2.067,0.332-3.112,0.332c-3.612,0-6.724-1.195-9.337-3.588c-2.613-2.391-3.92-5.424-3.92-9.099 c0-3.928,1.314-7.12,3.944-9.574c2.629-2.455,5.86-3.683,9.693-3.683c1.014,0,2.003,0.119,2.97,0.356 c0.966,0.238,1.877,0.594,2.732,1.069L83.277,18.64L83.277,18.64z"></path> <path fill="#FFFFFF" d="M97.294,22.014h0.095c0.823-1.457,1.924-2.534,3.302-3.23c1.378-0.697,2.907-1.046,4.585-1.046 l1.662-0.047v8.315c-0.126-0.03-0.245-0.078-0.355-0.142c-0.112-0.063-0.23-0.11-0.356-0.144c-0.477-0.189-0.95-0.316-1.426-0.38 c-0.475-0.063-0.981-0.096-1.521-0.096c-2.407,0-4.007,0.705-4.798,2.114c-0.792,1.411-1.188,3.161-1.188,5.252v9.788h-8.648 V18.022h8.648L97.294,22.014L97.294,22.014z"></path> </g> <g> <g> <path fill="#FFFFFF" d="M129.077,27.441c0-1.923,0.003-3.846-0.007-5.769c0-0.127-0.064-0.276-0.146-0.374 c-0.238-0.288-0.239-0.675,0.025-0.939c0.204-0.207,0.634-0.203,0.853,0.006c0.248,0.235,0.248,0.641,0.029,0.921 c-0.084,0.108-0.152,0.265-0.152,0.4c-0.008,3.919-0.004,7.839-0.013,11.759c-0.002,0.149-0.08,0.336-0.183,0.445 c-0.559,0.59-1.142,1.156-1.703,1.743c-0.083,0.086-0.145,0.235-0.146,0.356c-0.009,1.445-0.009,2.893,0.002,4.338 c0.002,0.127,0.079,0.274,0.165,0.376c0.23,0.285,0.231,0.671-0.022,0.915c-0.244,0.234-0.641,0.226-0.884-0.023 c-0.24-0.245-0.224-0.611,0-0.894c0.091-0.115,0.151-0.288,0.152-0.436c0.011-1.491,0.001-2.984,0.014-4.478 c0-0.145,0.067-0.322,0.167-0.426c0.515-0.542,1.049-1.065,1.579-1.593c0.179-0.177,0.283-0.359,0.28-0.642 C129.069,31.232,129.077,29.337,129.077,27.441z M112.618,22.408c-0.114,0.232-0.099,0.483,0.101,0.655 c0.173,0.146,0.189,0.311,0.189,0.508c-0.006,1.959-0.006,3.92-0.012,5.879c0,0.194,0.022,0.361,0.179,0.517 c1.22,1.215,2.431,2.44,3.646,3.662c0.145,0.145,0.245,0.293,0.242,0.521c-0.008,2.06-0.001,4.12-0.01,6.181 c-0.002,0.127-0.072,0.277-0.158,0.375c-0.213,0.249-0.237,0.645-0.021,0.875c0.242,0.26,0.624,0.282,0.878,0.05 c0.266-0.241,0.308-0.629,0.065-0.874c-0.15-0.153-0.191-0.316-0.19-0.518c0.006-0.777,0.001-1.556,0.001-2.334 c0-1.327-0.001-2.654,0.005-3.982c0-0.214-0.05-0.388-0.22-0.533c-0.213-0.185-0.411-0.387-0.608-0.587 c-1.005-1.017-2.006-2.038-3.016-3.05c-0.146-0.147-0.215-0.291-0.213-0.502c0.007-1.885,0.004-3.771,0-5.658 c-0.002-0.198,0.02-0.362,0.187-0.51c0.192-0.171,0.229-0.415,0.121-0.657c-0.11-0.242-0.302-0.381-0.535-0.391 C112.935,22.037,112.734,22.17,112.618,22.408z M120.708,24.008c-0.087,0.246-0.059,0.475,0.109,0.694 c0.091,0.119,0.16,0.283,0.167,0.429c0.017,0.447-0.009,0.897-0.007,1.345c0.002,1.234,0.009,2.47,0.021,3.703 c0.002,0.226-0.054,0.394-0.224,0.556c-0.512,0.491-0.998,1.01-1.507,1.503c-0.211,0.203-0.301,0.416-0.299,0.72 c0.012,2.692,0.007,5.385,0.011,8.078c0.001,0.216-0.025,0.395-0.189,0.567c-0.256,0.271-0.216,0.63,0.051,0.878 c0.251,0.233,0.618,0.226,0.858-0.019c0.253-0.258,0.247-0.602,0.021-0.894c-0.09-0.118-0.169-0.282-0.169-0.427 c-0.01-2.701-0.01-5.401,0-8.104c0-0.136,0.071-0.302,0.165-0.401c0.547-0.574,1.109-1.136,1.672-1.695 c0.14-0.138,0.19-0.281,0.189-0.482c-0.007-1.777-0.004-3.553,0.01-5.33c0.001-0.144,0.082-0.302,0.167-0.427 c0.152-0.225,0.196-0.455,0.091-0.698c-0.103-0.236-0.287-0.372-0.554-0.369C121.036,23.634,120.787,23.78,120.708,24.008z M127.628,31.267c0-0.349,0.01-0.696-0.006-1.044c-0.005-0.106-0.051-0.238-0.123-0.312c-0.563-0.585-1.143-1.151-1.704-1.737 c-0.095-0.1-0.177-0.257-0.182-0.39c-0.018-0.695-0.003-1.393-0.014-2.088c-0.004-0.123-0.052-0.278-0.134-0.363 c-1.229-1.271-2.472-2.528-3.704-3.797c-0.083-0.085-0.145-0.231-0.146-0.351c-0.014-0.64-0.015-1.282,0-1.922 c0.003-0.126,0.07-0.272,0.151-0.374c0.237-0.301,0.237-0.662-0.027-0.912c-0.247-0.232-0.62-0.231-0.86,0.003 c-0.266,0.259-0.258,0.607-0.012,0.91c0.082,0.101,0.146,0.25,0.148,0.378c0.015,0.704,0,1.41,0.013,2.114 c0.003,0.129,0.06,0.291,0.148,0.381c1.219,1.265,2.446,2.525,3.68,3.778c0.133,0.135,0.191,0.268,0.188,0.457 c-0.009,0.677-0.011,1.354,0.004,2.033c0.003,0.129,0.062,0.288,0.15,0.38c0.542,0.565,1.107,1.107,1.646,1.678 c0.112,0.117,0.191,0.311,0.199,0.472c0.022,0.559,0.004,1.117,0.007,1.676c0.001,0.18-0.033,0.322-0.179,0.459 c-0.224,0.213-0.195,0.624,0.021,0.844c0.252,0.257,0.626,0.271,0.883,0.032c0.229-0.213,0.288-0.632,0.063-0.838 c-0.207-0.191-0.211-0.405-0.211-0.643C127.628,31.814,127.627,31.54,127.628,31.267L127.628,31.267z M117.092,31.646 c0.251,0.07,0.548-0.058,0.704-0.303c0.131-0.207,0.112-0.548-0.089-0.732c-0.148-0.137-0.172-0.284-0.172-0.462 c0.004-0.586,0.006-1.171,0.005-1.757c0-0.961-0.005-1.922,0.001-2.882c0-0.088,0.049-0.196,0.11-0.261 c0.553-0.566,1.114-1.128,1.677-1.686c0.145-0.143,0.219-0.293,0.217-0.506c-0.009-1.163-0.006-2.325,0.01-3.49 c0.001-0.134,0.072-0.292,0.16-0.398c0.234-0.287,0.24-0.671-0.016-0.913c-0.252-0.236-0.644-0.229-0.89,0.016 c-0.253,0.251-0.235,0.624,0.016,0.911c0.079,0.091,0.146,0.232,0.146,0.35c0.011,1.109,0.011,2.219,0,3.326 c0,0.113-0.059,0.252-0.135,0.332c-0.559,0.578-1.124,1.147-1.694,1.712c-0.131,0.131-0.188,0.262-0.187,0.454 c0.006,1.604,0.006,3.206-0.005,4.81c-0.002,0.144-0.102,0.289-0.164,0.429c-0.063,0.146-0.135,0.288-0.204,0.431 C116.628,31.348,116.796,31.565,117.092,31.646z M132.875,34.906c0.195,0.316,0.644,0.392,0.928,0.167 c0.288-0.224,0.314-0.636,0.071-0.927c-0.071-0.087-0.161-0.194-0.161-0.293c-0.01-0.915,0.008-1.829-0.002-2.743 c-0.002-0.245,0.046-0.512-0.167-0.721c-0.564-0.557-1.127-1.117-1.677-1.688c-0.097-0.102-0.183-0.263-0.184-0.397 c-0.013-1.611-0.01-3.221,0.001-4.832c0.001-0.12,0.071-0.259,0.153-0.353c0.255-0.294,0.26-0.639-0.01-0.903 c-0.262-0.254-0.653-0.247-0.902,0.019c-0.229,0.245-0.207,0.634,0.024,0.894c0.08,0.089,0.146,0.23,0.146,0.346 c0.009,1.64,0.011,3.278,0.001,4.917c-0.002,0.256,0.068,0.45,0.253,0.63c0.548,0.533,1.084,1.078,1.614,1.63 c0.083,0.087,0.146,0.234,0.147,0.354c0.012,0.888,0.003,1.776,0.01,2.664c0.002,0.202-0.029,0.36-0.192,0.506 c-0.095,0.086-0.12,0.25-0.173,0.371C132.801,34.688,132.815,34.811,132.875,34.906z M124.745,30.785 c-0.124,0.258-0.042,0.466,0.115,0.682c0.09,0.12,0.166,0.279,0.173,0.426c0.021,0.411,0.002,0.822,0.003,1.234 c0.001,2.691,0.005,5.382,0,8.072c0,0.111-0.059,0.245-0.134,0.33c-0.274,0.316-0.291,0.653-0.021,0.927 c0.249,0.254,0.622,0.259,0.878,0.014c0.278-0.268,0.27-0.615,0.009-0.932c-0.087-0.105-0.153-0.266-0.155-0.403 c-0.011-0.749,0.006-1.5,0.006-2.25c-0.004-2.298-0.01-4.595-0.014-6.892c0-0.211,0.007-0.4,0.196-0.566 c0.19-0.166,0.229-0.414,0.104-0.653c-0.121-0.232-0.304-0.385-0.583-0.379C125.066,30.402,124.859,30.546,124.745,30.785z M120.714,33.02c-0.104,0.253-0.062,0.492,0.112,0.719c0.085,0.109,0.153,0.264,0.158,0.398c0.017,0.678,0,1.354,0.017,2.031 c0.005,0.15,0.056,0.339,0.156,0.442c0.559,0.585,1.145,1.144,1.709,1.724c0.084,0.087,0.147,0.236,0.149,0.357 c0.012,0.915,0.011,1.831,0,2.746c-0.002,0.119-0.065,0.265-0.148,0.348c-0.19,0.188-0.234,0.416-0.194,0.65 c0.047,0.265,0.256,0.396,0.51,0.438c0.275,0.044,0.506-0.047,0.659-0.287c0.146-0.232,0.161-0.514-0.025-0.688 c-0.258-0.24-0.214-0.517-0.215-0.799c0-0.888,0.006-1.774-0.004-2.66c-0.001-0.107-0.049-0.239-0.122-0.315 c-0.493-0.511-0.991-1.019-1.506-1.508c-0.278-0.266-0.444-0.538-0.405-0.951c0.046-0.472,0.044-0.951,0.023-1.426 c-0.011-0.235,0.032-0.408,0.194-0.585c0.173-0.19,0.168-0.442,0.047-0.669c-0.116-0.217-0.303-0.336-0.624-0.334 C121.018,32.665,120.813,32.781,120.714,33.02z M122.734,25.821c-0.102,0.25-0.078,0.501,0.119,0.686 c0.145,0.136,0.171,0.281,0.171,0.461c-0.004,2.526-0.004,5.054-0.002,7.58c0,0.194-0.017,0.355-0.181,0.513 c-0.252,0.241-0.202,0.688,0.056,0.905c0.256,0.218,0.629,0.192,0.863-0.054c0.248-0.263,0.226-0.632-0.027-0.91 c-0.074-0.081-0.122-0.219-0.122-0.331c-0.01-2.581-0.011-5.162-0.001-7.743c0-0.145,0.081-0.307,0.169-0.428 c0.158-0.222,0.213-0.451,0.099-0.691c-0.107-0.23-0.307-0.354-0.546-0.369C123.043,25.45,122.836,25.566,122.734,25.821z M114.914,24.923c0,1.109,0.005,2.216-0.007,3.324c-0.002,0.139-0.067,0.297-0.15,0.407c-0.223,0.293-0.221,0.649,0.033,0.89 c0.243,0.231,0.615,0.229,0.862-0.002c0.234-0.222,0.236-0.635,0.035-0.902c-0.089-0.118-0.168-0.282-0.17-0.425 c-0.011-2.198-0.012-4.396-0.004-6.594c0-0.109,0.077-0.234,0.151-0.323c0.167-0.2,0.231-0.523,0.12-0.74 c-0.12-0.23-0.308-0.352-0.567-0.353c-0.28-0.002-0.477,0.157-0.576,0.387c-0.099,0.223-0.08,0.478,0.117,0.662 c0.133,0.122,0.156,0.257,0.155,0.429c-0.007,1.081-0.003,2.16-0.003,3.24C114.913,24.923,114.913,24.923,114.914,24.923z M126.772,19.359c-0.1,0.251-0.067,0.495,0.122,0.713c0.077,0.087,0.149,0.214,0.149,0.325c0.008,1.957,0.009,3.916,0,5.874 c-0.001,0.12-0.071,0.259-0.15,0.354c-0.225,0.27-0.233,0.658,0.005,0.89c0.253,0.249,0.635,0.254,0.881,0.014 c0.249-0.242,0.248-0.611,0.03-0.889c-0.092-0.117-0.172-0.283-0.173-0.428c-0.011-1.912-0.011-3.825-0.002-5.738 c0.001-0.135,0.079-0.29,0.166-0.4c0.179-0.225,0.225-0.466,0.117-0.717c-0.104-0.245-0.312-0.373-0.533-0.364 C127.068,18.997,126.869,19.12,126.772,19.359z M130.813,31.306c-0.09,0.229-0.085,0.478,0.122,0.685 c0.09,0.091,0.16,0.246,0.162,0.372c0.01,1.656,0.01,3.312,0.002,4.969c-0.002,0.101-0.059,0.225-0.131,0.296 c-0.252,0.264-0.271,0.69-0.02,0.937c0.256,0.253,0.652,0.245,0.901-0.018c0.252-0.268,0.234-0.64-0.024-0.909 c-0.071-0.075-0.136-0.194-0.138-0.295c-0.009-1.655-0.01-3.311-0.001-4.967c0.001-0.127,0.073-0.277,0.159-0.378 c0.177-0.211,0.239-0.435,0.13-0.683c-0.107-0.244-0.301-0.381-0.593-0.373C131.113,30.918,130.908,31.066,130.813,31.306z M114.666,34.152c-0.105,0.229-0.111,0.453,0.062,0.667c0.085,0.107,0.188,0.246,0.188,0.37c0.009,1.328,0.001,2.658-0.013,3.986 c-0.002,0.11-0.063,0.241-0.137,0.328c-0.234,0.277-0.233,0.667,0.022,0.915c0.208,0.199,0.621,0.198,0.854-0.005 c0.245-0.21,0.296-0.659,0.053-0.883c-0.169-0.154-0.183-0.319-0.183-0.512c-0.001-1.246-0.007-2.491,0.004-3.737 c0.001-0.125,0.077-0.265,0.153-0.372c0.168-0.234,0.229-0.472,0.112-0.744c-0.104-0.251-0.312-0.341-0.553-0.351 C114.966,33.818,114.772,33.925,114.666,34.152z M112.616,32.362c-0.117,0.25-0.055,0.473,0.116,0.684 c0.079,0.099,0.164,0.229,0.165,0.346c0.012,1.325,0.011,2.651,0.005,3.979c0,0.086-0.052,0.19-0.113,0.251 c-0.274,0.268-0.313,0.648-0.076,0.907c0.252,0.274,0.656,0.29,0.924,0.033c0.271-0.26,0.258-0.643-0.013-0.93 c-0.071-0.075-0.136-0.193-0.137-0.294c-0.009-1.289-0.003-2.58-0.008-3.871c0-0.174,0.039-0.303,0.179-0.427 c0.206-0.182,0.231-0.434,0.121-0.679c-0.108-0.242-0.309-0.376-0.602-0.386C112.93,31.992,112.73,32.117,112.616,32.362z M111.467,33.392c0.065-0.469-0.057-0.851-0.444-1.148c-0.235-0.18-0.415-0.383-0.416-0.74c-0.001-0.307-0.389-0.54-0.679-0.498 c-0.319,0.046-0.572,0.358-0.55,0.68c0.022,0.34,0.284,0.571,0.629,0.599c0.129,0.011,0.264,0.083,0.371,0.161 c0.124,0.09,0.208,0.235,0.331,0.324c0.161,0.119,0.192,0.271,0.188,0.454c-0.005,0.402-0.009,0.805,0,1.206 c0.004,0.235-0.023,0.43-0.212,0.613c-0.242,0.239-0.188,0.618,0.072,0.854c0.247,0.227,0.626,0.22,0.862-0.016 c0.235-0.234,0.279-0.615,0.052-0.833c-0.184-0.175-0.22-0.359-0.209-0.587c0.01-0.229,0.002-0.456,0.002-0.686 C111.465,33.648,111.45,33.518,111.467,33.392z M133.121,26.9c0,0.064,0.006,0.13-0.001,0.193 c-0.06,0.485,0.049,0.891,0.465,1.203c0.24,0.181,0.435,0.401,0.468,0.757c0.025,0.301,0.414,0.497,0.685,0.444 c0.426-0.083,0.555-0.472,0.518-0.743c-0.042-0.299-0.328-0.575-0.628-0.522c-0.235,0.04-0.338-0.085-0.49-0.199 c-0.383-0.289-0.5-0.664-0.437-1.124c0.021-0.153,0.004-0.31,0.003-0.466c-0.001-0.221,0.018-0.411,0.192-0.596 c0.244-0.256,0.185-0.622-0.079-0.854c-0.262-0.228-0.606-0.211-0.857,0.039c-0.221,0.219-0.255,0.615-0.023,0.838 c0.168,0.162,0.196,0.33,0.187,0.535C133.114,26.571,133.12,26.735,133.121,26.9L133.121,26.9z M125.909,23.042 c0.12-0.24,0.078-0.484-0.113-0.655c-0.183-0.164-0.195-0.35-0.194-0.565c0.004-0.751-0.006-1.5,0.011-2.252 c0.002-0.136,0.071-0.294,0.159-0.402c0.256-0.32,0.264-0.65-0.012-0.904c-0.265-0.245-0.634-0.239-0.882,0.015 c-0.263,0.27-0.251,0.605,0.011,0.904c0.078,0.092,0.145,0.231,0.146,0.349c0.011,0.742-0.007,1.483,0.005,2.225 c0.004,0.253-0.012,0.468-0.212,0.667c-0.184,0.181-0.187,0.426-0.06,0.661c0.12,0.223,0.306,0.329,0.553,0.329 C125.601,23.422,125.79,23.281,125.909,23.042z M129.225,40.558c0.224,0.06,0.531-0.056,0.648-0.238 c0.182-0.292,0.154-0.595-0.045-0.836c-0.078-0.093-0.144-0.229-0.146-0.347c-0.013-0.705-0.012-1.408-0.002-2.112 c0.002-0.095,0.055-0.209,0.12-0.279c0.249-0.27,0.261-0.681,0.014-0.942c-0.189-0.2-0.672-0.206-0.874-0.009 c-0.256,0.247-0.25,0.65-0.006,0.935c0.074,0.087,0.133,0.217,0.135,0.33c0.012,0.65,0.004,1.299,0.01,1.947 c0.001,0.207-0.01,0.388-0.192,0.538c-0.091,0.075-0.116,0.232-0.137,0.279C128.744,40.237,128.923,40.479,129.225,40.558z M110.896,27.917c0,0.164,0,0.328,0,0.493c0,0.175,0.021,0.351-0.008,0.521c-0.021,0.141-0.069,0.299-0.158,0.404 c-0.246,0.303-0.256,0.654,0.009,0.913c0.245,0.238,0.643,0.235,0.884-0.008c0.255-0.258,0.243-0.62-0.006-0.909 c-0.078-0.094-0.145-0.232-0.146-0.352c-0.015-0.649-0.004-1.3-0.012-1.948c-0.002-0.219,0.031-0.392,0.204-0.56 c0.247-0.241,0.201-0.601-0.059-0.853c-0.241-0.234-0.609-0.233-0.859,0.003c-0.25,0.235-0.304,0.604-0.062,0.833 c0.203,0.192,0.219,0.396,0.211,0.639c-0.011,0.273-0.003,0.549-0.003,0.823C110.894,27.917,110.896,27.917,110.896,27.917z M119.842,29.812c0.117-0.256,0.069-0.511-0.118-0.686c-0.164-0.154-0.188-0.313-0.187-0.51c0.005-0.373-0.002-0.748,0.002-1.12 c0.004-0.413-0.035-0.827,0.267-1.188c0.092-0.111,0.096-0.353,0.05-0.51c-0.078-0.273-0.321-0.388-0.594-0.393 c-0.27-0.005-0.47,0.134-0.59,0.372c-0.129,0.252-0.046,0.47,0.12,0.683c0.082,0.104,0.159,0.243,0.162,0.369 c0.021,0.666,0.023,1.332,0.018,2c-0.001,0.08-0.065,0.179-0.128,0.24c-0.194,0.187-0.271,0.467-0.178,0.727 c0.086,0.231,0.331,0.397,0.668,0.399C119.533,30.183,119.729,30.058,119.842,29.812z M121.481,38.47 c-0.275-0.078-0.611,0.047-0.739,0.277c-0.141,0.25-0.09,0.582,0.093,0.789c0.075,0.086,0.142,0.212,0.145,0.321 c0.015,0.539,0.013,1.078,0,1.619c-0.002,0.103-0.059,0.224-0.128,0.306c-0.245,0.289-0.258,0.668-0.014,0.912 s0.616,0.271,0.832,0.062c0.304-0.291,0.314-0.652,0.052-0.967c-0.075-0.088-0.141-0.216-0.143-0.327 c-0.012-0.521-0.014-1.043,0.01-1.564c0.006-0.133,0.11-0.262,0.167-0.394c0.062-0.139,0.122-0.277,0.182-0.417 C121.908,38.795,121.73,38.54,121.481,38.47z M117.075,23.048c0.264,0.078,0.559-0.04,0.706-0.279 c0.145-0.234,0.133-0.582-0.072-0.759c-0.158-0.134-0.181-0.283-0.18-0.458c0.001-0.367,0.016-0.732,0.006-1.099 c-0.008-0.261-0.015-0.511,0.236-0.679c0.038-0.027,0.054-0.095,0.068-0.146c0.094-0.315-0.032-0.618-0.313-0.763 c-0.282-0.147-0.626-0.067-0.805,0.188c-0.165,0.23-0.114,0.596,0.082,0.837c0.081,0.1,0.143,0.249,0.147,0.378 c0.018,0.429,0.002,0.86,0.009,1.29c0.003,0.182-0.033,0.324-0.174,0.462c-0.101,0.098-0.133,0.264-0.195,0.401 C116.632,22.761,116.775,22.959,117.075,23.048z M122.748,18.041c-0.128,0.239-0.111,0.506,0.085,0.685 c0.185,0.169,0.193,0.354,0.188,0.565c-0.002,0.119-0.002,0.239,0,0.357c0.005,0.262,0.01,0.498-0.211,0.721 c-0.239,0.239-0.157,0.62,0.106,0.849c0.249,0.215,0.597,0.2,0.839-0.036c0.228-0.222,0.265-0.617,0.033-0.839 c-0.169-0.162-0.19-0.336-0.187-0.539c0.004-0.192,0.012-0.384,0.004-0.577c-0.01-0.2,0.026-0.362,0.181-0.514 c0.189-0.183,0.204-0.423,0.085-0.658c-0.115-0.226-0.282-0.381-0.567-0.354C123.033,17.658,122.861,17.823,122.748,18.041z"></path> </g> <g> <linearGradient id="SVGID_1_" gradientUnits="userSpaceOnUse" x1="305.0391" y1="-238.2944" x2="331.5986" y2="-238.2944" gradientTransform="matrix(1 0 0 -1 -196 -208)"> <stop offset="0" style="stop-color:#EA272A"></stop> <stop offset="0.0893" style="stop-color:#EE4F26"></stop> <stop offset="0.1754" style="stop-color:#F16825"></stop> <stop offset="0.1932" style="stop-color:#EC6B26"></stop> <stop offset="0.2158" style="stop-color:#E27228"></stop> <stop offset="0.241" style="stop-color:#CF7C2B"></stop> <stop offset="0.268" style="stop-color:#B48835"></stop> <stop offset="0.2965" style="stop-color:#8F933B"></stop> <stop offset="0.3258" style="stop-color:#529E46"></stop> <stop offset="0.3385" style="stop-color:#0DA14B"></stop> <stop offset="0.3403" style="stop-color:#0CA14C"></stop> <stop offset="0.3576" style="stop-color:#1CA26B"></stop> <stop offset="0.3762" style="stop-color:#21A588"></stop> <stop offset="0.3955" style="stop-color:#2AA69E"></stop> <stop offset="0.4158" style="stop-color:#2CA6B2"></stop> <stop offset="0.4374" style="stop-color:#2CA7C1"></stop> <stop offset="0.4606" style="stop-color:#2EA8CE"></stop> <stop offset="0.4863" style="stop-color:#2EA8D6"></stop> <stop offset="0.5165" style="stop-color:#2CA8DD"></stop> <stop offset="0.5622" style="stop-color:#2AA7DF"></stop> <stop offset="0.6149" style="stop-color:#2CA4DD"></stop> <stop offset="0.6815" style="stop-color:#289BD7"></stop> <stop offset="0.7557" style="stop-color:#288DC9"></stop> <stop offset="0.8354" style="stop-color:#2778BA"></stop> <stop offset="0.9184" style="stop-color:#2361AA"></stop> <stop offset="1" style="stop-color:#214797"></stop> </linearGradient> <path fill="url(#SVGID_1_)" d="M123.221,17.693c0.026,0,0.054,0.002,0.083,0.006c0.021-0.001,0.043-0.002,0.063-0.002 c0.248,0,0.398,0.148,0.504,0.356c0.119,0.235,0.104,0.476-0.085,0.658c-0.154,0.152-0.189,0.315-0.181,0.514 c0.009,0.192,0,0.384-0.004,0.577c-0.004,0.203,0.017,0.377,0.187,0.539c0.232,0.222,0.194,0.618-0.033,0.839 c-0.128,0.125-0.285,0.188-0.443,0.188c-0.14,0-0.278-0.05-0.396-0.151c-0.264-0.229-0.346-0.61-0.106-0.849 c0.22-0.223,0.215-0.458,0.211-0.721c-0.002-0.119-0.002-0.238,0-0.357c0.007-0.211-0.003-0.396-0.188-0.565 c-0.196-0.179-0.213-0.446-0.085-0.685C122.85,17.845,122.998,17.693,123.221,17.693 M121.309,17.804 c0.153,0,0.308,0.057,0.431,0.173c0.265,0.25,0.265,0.611,0.027,0.912c-0.081,0.101-0.148,0.247-0.151,0.374 c-0.015,0.64-0.014,1.282,0,1.922c0.003,0.12,0.063,0.266,0.146,0.351c1.232,1.269,2.475,2.526,3.704,3.797 c0.082,0.085,0.13,0.24,0.134,0.363c0.011,0.695-0.004,1.393,0.014,2.088c0.005,0.133,0.087,0.29,0.182,0.39 c0.563,0.586,1.142,1.152,1.704,1.737c0.073,0.073,0.118,0.205,0.123,0.312c0.015,0.348,0.006,0.695,0.006,1.044h-0.001 c0,0.274,0.001,0.548,0,0.823c-0.001,0.237,0.004,0.451,0.211,0.643c0.226,0.207,0.167,0.626-0.063,0.838 c-0.122,0.113-0.271,0.17-0.422,0.17c-0.165,0-0.329-0.067-0.461-0.201c-0.216-0.22-0.244-0.632-0.021-0.845 c0.146-0.137,0.18-0.279,0.179-0.459c-0.003-0.559,0.016-1.117-0.007-1.675c-0.008-0.163-0.087-0.354-0.199-0.473 c-0.538-0.569-1.104-1.111-1.646-1.678c-0.089-0.092-0.147-0.251-0.15-0.381c-0.015-0.677-0.012-1.354-0.004-2.033 c0.004-0.188-0.056-0.321-0.188-0.455c-1.233-1.254-2.46-2.514-3.68-3.779c-0.089-0.09-0.146-0.252-0.148-0.381 c-0.013-0.704,0.002-1.41-0.013-2.114c-0.003-0.128-0.066-0.276-0.148-0.377c-0.246-0.302-0.254-0.65,0.012-0.91 C121,17.862,121.153,17.804,121.309,17.804 M125.322,18.083c0.153,0,0.308,0.059,0.438,0.18c0.276,0.254,0.269,0.584,0.012,0.904 c-0.088,0.108-0.157,0.266-0.159,0.402c-0.017,0.751-0.007,1.501-0.011,2.252c-0.001,0.216,0.012,0.401,0.194,0.565 c0.191,0.171,0.233,0.415,0.113,0.655c-0.115,0.231-0.296,0.371-0.561,0.371c-0.011,0-0.019,0-0.028,0 c-0.247,0-0.433-0.106-0.553-0.329c-0.127-0.235-0.124-0.481,0.06-0.662c0.2-0.198,0.216-0.413,0.212-0.667 c-0.011-0.742,0.007-1.483-0.005-2.225c-0.003-0.118-0.068-0.257-0.146-0.349c-0.261-0.298-0.273-0.634-0.011-0.904 C125.004,18.149,125.162,18.083,125.322,18.083 M119.264,18.085c0.155,0,0.312,0.057,0.435,0.171 c0.256,0.241,0.25,0.626,0.015,0.913c-0.087,0.106-0.158,0.264-0.159,0.398c-0.016,1.164-0.018,2.327-0.01,3.49 c0.002,0.212-0.072,0.363-0.217,0.506c-0.563,0.558-1.124,1.12-1.677,1.686c-0.062,0.064-0.11,0.173-0.11,0.261 c-0.006,0.96-0.001,1.921-0.001,2.882c0.001,0.586-0.001,1.171-0.005,1.757c0,0.178,0.023,0.324,0.172,0.462 c0.201,0.185,0.22,0.524,0.089,0.731c-0.128,0.201-0.349,0.322-0.563,0.322c-0.048,0-0.096-0.005-0.142-0.018 c-0.296-0.081-0.464-0.3-0.508-0.62c0.069-0.144,0.142-0.284,0.204-0.431c0.063-0.141,0.162-0.285,0.164-0.43 c0.011-1.604,0.011-3.206,0.005-4.81c-0.002-0.191,0.055-0.322,0.187-0.453c0.57-0.564,1.136-1.134,1.694-1.713 c0.076-0.08,0.134-0.219,0.135-0.332c0.011-1.107,0.011-2.217,0-3.326c-0.001-0.118-0.067-0.258-0.146-0.351 c-0.251-0.288-0.269-0.66-0.016-0.911C118.936,18.147,119.1,18.085,119.264,18.085 M117.231,18.791 c0.1,0,0.201,0.023,0.296,0.074c0.282,0.145,0.407,0.447,0.313,0.763c-0.014,0.051-0.029,0.119-0.067,0.146 c-0.252,0.168-0.245,0.418-0.237,0.679c0.011,0.367-0.005,0.732-0.006,1.099c-0.001,0.175,0.022,0.325,0.18,0.458 c0.206,0.178,0.217,0.525,0.073,0.759c-0.118,0.19-0.325,0.302-0.539,0.302c-0.057,0-0.112-0.007-0.168-0.022 c-0.3-0.089-0.443-0.287-0.482-0.628c0.063-0.136,0.097-0.302,0.195-0.4c0.142-0.138,0.178-0.28,0.174-0.462 c-0.006-0.43,0.009-0.861-0.009-1.29c-0.006-0.13-0.066-0.278-0.147-0.379c-0.195-0.241-0.247-0.606-0.082-0.837 C116.843,18.883,117.033,18.791,117.231,18.791 M127.405,18.991c0.215,0,0.412,0.127,0.513,0.365 c0.107,0.251,0.061,0.493-0.117,0.718c-0.087,0.11-0.166,0.265-0.167,0.4c-0.009,1.913-0.009,3.825,0.002,5.737 c0.001,0.145,0.082,0.311,0.174,0.429c0.217,0.276,0.218,0.647-0.032,0.889c-0.12,0.117-0.273,0.176-0.428,0.176 c-0.162,0-0.323-0.063-0.452-0.189c-0.238-0.231-0.229-0.621-0.005-0.89c0.079-0.096,0.148-0.234,0.15-0.354 c0.009-1.958,0.008-3.917,0-5.873c0-0.111-0.073-0.238-0.149-0.325c-0.19-0.218-0.222-0.462-0.122-0.713 c0.097-0.239,0.296-0.362,0.611-0.367C127.392,18.991,127.398,18.991,127.405,18.991 M115.214,20.205c0.001,0,0.002,0,0.004,0 c0.261,0.001,0.448,0.122,0.568,0.353c0.11,0.217,0.046,0.541-0.12,0.74c-0.075,0.088-0.151,0.213-0.151,0.323 c-0.009,2.197-0.008,4.396,0.004,6.594c0.001,0.143,0.08,0.307,0.17,0.425c0.201,0.268,0.198,0.681-0.036,0.902 c-0.124,0.116-0.279,0.174-0.434,0.174c-0.153,0-0.308-0.057-0.429-0.172c-0.254-0.24-0.256-0.597-0.033-0.89 c0.083-0.11,0.148-0.269,0.15-0.407c0.012-1.107,0.007-2.215,0.007-3.324c-0.001,0-0.002,0-0.003,0c0-1.08-0.004-2.16,0.003-3.24 c0.001-0.171-0.022-0.307-0.155-0.429c-0.197-0.185-0.215-0.438-0.117-0.662C114.742,20.364,114.936,20.205,115.214,20.205 M129.364,20.207c0.163,0,0.327,0.053,0.437,0.159c0.248,0.235,0.248,0.641,0.03,0.921c-0.085,0.108-0.153,0.265-0.153,0.4 c-0.008,3.919-0.004,7.839-0.012,11.758c-0.003,0.15-0.08,0.336-0.184,0.446c-0.558,0.59-1.141,1.156-1.702,1.742 c-0.084,0.086-0.146,0.235-0.146,0.356c-0.01,1.445-0.01,2.893,0.001,4.339c0.002,0.126,0.08,0.273,0.165,0.376 c0.231,0.284,0.231,0.67-0.023,0.914c-0.116,0.114-0.27,0.171-0.424,0.171c-0.166,0-0.333-0.063-0.459-0.194 c-0.24-0.245-0.224-0.61,0-0.894c0.092-0.114,0.152-0.288,0.152-0.435c0.012-1.492,0.001-2.985,0.014-4.478 c0.001-0.145,0.068-0.323,0.167-0.427c0.515-0.542,1.049-1.065,1.579-1.592c0.18-0.178,0.283-0.359,0.28-0.643 c-0.017-1.896-0.009-3.791-0.009-5.687c0-1.923,0.002-3.846-0.007-5.769c-0.001-0.127-0.065-0.276-0.147-0.374 c-0.238-0.288-0.239-0.675,0.025-0.939C129.049,20.257,129.205,20.207,129.364,20.207 M131.385,22.031 c0.157,0,0.316,0.062,0.443,0.185c0.271,0.264,0.265,0.61,0.01,0.903c-0.081,0.093-0.151,0.233-0.153,0.353 c-0.01,1.611-0.014,3.22-0.001,4.832c0.001,0.135,0.087,0.296,0.185,0.397c0.549,0.572,1.112,1.132,1.676,1.688 c0.214,0.209,0.166,0.476,0.167,0.721c0.011,0.914-0.008,1.828,0.002,2.743c0,0.099,0.091,0.206,0.162,0.292 c0.242,0.292,0.216,0.704-0.071,0.928c-0.111,0.088-0.248,0.129-0.384,0.129c-0.213,0-0.426-0.103-0.545-0.296 c-0.059-0.096-0.074-0.219-0.118-0.36c0.054-0.122,0.078-0.285,0.174-0.371c0.163-0.146,0.194-0.304,0.192-0.506 c-0.006-0.888,0.002-1.776-0.011-2.664c-0.001-0.12-0.063-0.267-0.147-0.354c-0.529-0.552-1.065-1.097-1.612-1.63 c-0.186-0.18-0.256-0.373-0.255-0.63c0.01-1.639,0.008-3.277-0.001-4.917c0-0.117-0.065-0.257-0.146-0.346 c-0.232-0.259-0.254-0.648-0.024-0.894C131.054,22.099,131.219,22.031,131.385,22.031 M113.248,22.035 c0.233,0.01,0.425,0.149,0.535,0.391c0.108,0.242,0.071,0.486-0.121,0.657c-0.167,0.148-0.188,0.312-0.187,0.51 c0.004,1.886,0.007,3.773,0,5.659c-0.002,0.211,0.066,0.354,0.213,0.501c1.011,1.012,2.011,2.033,3.015,3.05 c0.198,0.2,0.396,0.402,0.609,0.588c0.17,0.145,0.219,0.318,0.219,0.532c-0.005,1.328-0.004,2.656-0.004,3.983 c0,0.778,0.004,1.556-0.001,2.334c-0.001,0.201,0.04,0.363,0.19,0.517c0.242,0.246,0.2,0.634-0.065,0.874 c-0.116,0.108-0.263,0.161-0.409,0.161c-0.169,0-0.34-0.07-0.469-0.211c-0.217-0.229-0.193-0.625,0.021-0.874 c0.085-0.099,0.156-0.249,0.158-0.376c0.009-2.06,0.002-4.121,0.01-6.181c0.002-0.229-0.098-0.376-0.243-0.521 c-1.214-1.223-2.425-2.447-3.645-3.663c-0.156-0.154-0.179-0.321-0.179-0.518c0.006-1.958,0.007-3.918,0.012-5.877 c0-0.197-0.017-0.362-0.189-0.508c-0.199-0.171-0.215-0.422-0.101-0.655C112.734,22.17,112.935,22.037,113.248,22.035 M121.299,23.634c0.263,0,0.445,0.135,0.547,0.368c0.105,0.244,0.062,0.475-0.091,0.698c-0.085,0.125-0.166,0.283-0.167,0.428 c-0.013,1.776-0.017,3.553-0.01,5.329c0.001,0.202-0.05,0.346-0.189,0.483c-0.563,0.56-1.124,1.12-1.672,1.694 c-0.094,0.1-0.165,0.266-0.165,0.402c-0.01,2.702-0.01,5.402,0,8.104c0,0.145,0.079,0.309,0.169,0.427 c0.226,0.291,0.231,0.638-0.021,0.893c-0.123,0.125-0.281,0.189-0.438,0.189c-0.148,0-0.299-0.058-0.421-0.171 c-0.267-0.248-0.307-0.607-0.052-0.878c0.165-0.173,0.191-0.352,0.19-0.567c-0.004-2.692,0.002-5.385-0.011-8.077 c-0.002-0.304,0.088-0.517,0.299-0.721c0.509-0.493,0.995-1.012,1.507-1.503c0.17-0.162,0.226-0.329,0.224-0.555 c-0.013-1.234-0.02-2.469-0.021-3.703c-0.002-0.448,0.023-0.897,0.006-1.346c-0.006-0.145-0.075-0.309-0.166-0.428 c-0.168-0.22-0.196-0.449-0.109-0.695c0.079-0.228,0.328-0.374,0.584-0.374C121.293,23.634,121.297,23.634,121.299,23.634 M133.41,24.834c0.141,0,0.283,0.053,0.406,0.16c0.264,0.231,0.323,0.597,0.079,0.854c-0.175,0.185-0.193,0.375-0.192,0.596 c0.001,0.156,0.018,0.313-0.003,0.466c-0.063,0.46,0.055,0.835,0.437,1.124c0.132,0.101,0.227,0.207,0.402,0.207 c0.028,0,0.056-0.004,0.088-0.008c0.024-0.005,0.049-0.007,0.075-0.007c0.271,0,0.514,0.255,0.553,0.529 c0.037,0.271-0.092,0.66-0.518,0.743c-0.029,0.006-0.062,0.009-0.092,0.009c-0.26,0-0.57-0.186-0.593-0.453 c-0.033-0.355-0.228-0.576-0.468-0.757c-0.416-0.313-0.524-0.718-0.465-1.203c0.007-0.063,0.001-0.129,0.001-0.193h-0.001 c0-0.165-0.007-0.329,0.002-0.494c0.01-0.205-0.019-0.373-0.188-0.535c-0.231-0.223-0.197-0.619,0.023-0.838 C133.092,24.9,133.25,24.834,133.41,24.834 M119.246,25.405c0.006,0,0.011,0,0.016,0c0.273,0.006,0.517,0.12,0.594,0.393 c0.046,0.157,0.042,0.398-0.05,0.51c-0.302,0.361-0.263,0.774-0.267,1.188c-0.004,0.372,0.003,0.746-0.003,1.12 c-0.002,0.197,0.023,0.355,0.188,0.51c0.188,0.175,0.234,0.432,0.118,0.686c-0.112,0.246-0.309,0.371-0.509,0.385 c-0.337-0.002-0.582-0.168-0.667-0.399c-0.094-0.26-0.018-0.541,0.177-0.727c0.063-0.062,0.127-0.16,0.128-0.24 c0.006-0.668,0.004-1.334-0.017-2c-0.004-0.125-0.08-0.266-0.162-0.369c-0.167-0.213-0.249-0.431-0.12-0.683 C118.788,25.543,118.984,25.405,119.246,25.405 M123.332,25.44c0.239,0.016,0.438,0.139,0.546,0.368 c0.115,0.241,0.06,0.471-0.099,0.691c-0.088,0.122-0.169,0.284-0.169,0.428c-0.01,2.581-0.009,5.163,0.001,7.744 c0,0.111,0.048,0.25,0.122,0.331c0.253,0.278,0.275,0.646,0.027,0.909c-0.127,0.134-0.295,0.203-0.464,0.203 c-0.141,0-0.282-0.05-0.399-0.148c-0.257-0.217-0.308-0.664-0.056-0.906c0.164-0.157,0.181-0.318,0.181-0.512 c-0.001-2.526-0.002-5.055,0.002-7.58c0-0.18-0.026-0.325-0.171-0.461c-0.197-0.186-0.221-0.437-0.119-0.687 C122.836,25.566,123.043,25.45,123.332,25.44 M111.182,25.443c0.151,0,0.303,0.058,0.424,0.176 c0.26,0.252,0.305,0.611,0.058,0.852c-0.173,0.168-0.206,0.342-0.204,0.56c0.009,0.649-0.003,1.3,0.012,1.949 c0.004,0.119,0.067,0.258,0.146,0.351c0.249,0.29,0.261,0.651,0.006,0.909c-0.122,0.122-0.284,0.185-0.446,0.185 c-0.157,0-0.316-0.058-0.438-0.177c-0.264-0.258-0.255-0.609-0.009-0.912c0.089-0.106,0.137-0.264,0.158-0.404 c0.029-0.17,0.009-0.346,0.009-0.521c0-0.165,0-0.329,0-0.493c-0.002,0-0.004,0-0.007,0c0-0.274-0.007-0.55,0.005-0.823 c0.008-0.242-0.008-0.446-0.212-0.639c-0.241-0.229-0.188-0.598,0.062-0.833C110.871,25.504,111.027,25.443,111.182,25.443 M125.339,30.396c0.27,0,0.447,0.149,0.566,0.378c0.124,0.239,0.086,0.488-0.104,0.655c-0.189,0.165-0.196,0.354-0.196,0.565 c0.005,2.297,0.01,4.594,0.014,6.891c0,0.75-0.017,1.501-0.006,2.25c0.002,0.139,0.068,0.299,0.155,0.404 c0.261,0.315,0.27,0.664-0.009,0.932c-0.125,0.12-0.28,0.182-0.434,0.182c-0.16,0-0.319-0.066-0.445-0.195 c-0.269-0.274-0.252-0.611,0.022-0.928c0.074-0.085,0.134-0.219,0.134-0.33c0.004-2.69,0.001-5.381,0-8.071 c-0.001-0.412,0.018-0.824-0.003-1.235c-0.008-0.146-0.084-0.306-0.173-0.426c-0.157-0.215-0.239-0.423-0.115-0.682 c0.114-0.238,0.321-0.383,0.576-0.389C125.328,30.396,125.333,30.396,125.339,30.396 M131.327,30.939 c0.02,0,0.037,0.001,0.055,0.002c0.009,0,0.018,0,0.025,0c0.277,0,0.464,0.136,0.569,0.373c0.108,0.248,0.046,0.472-0.131,0.682 c-0.086,0.101-0.157,0.251-0.158,0.379c-0.009,1.656-0.008,3.311,0.001,4.966c0.002,0.101,0.066,0.221,0.137,0.296 c0.26,0.269,0.277,0.641,0.024,0.909c-0.128,0.134-0.294,0.202-0.459,0.202c-0.159,0-0.316-0.062-0.441-0.186 c-0.251-0.245-0.232-0.672,0.02-0.937c0.072-0.073,0.129-0.195,0.131-0.295c0.008-1.657,0.008-3.313-0.002-4.969 c-0.002-0.126-0.072-0.281-0.162-0.372c-0.207-0.208-0.211-0.457-0.122-0.685C130.9,31.082,131.086,30.939,131.327,30.939 M109.996,31.001c0.279,0,0.609,0.221,0.61,0.502c0.001,0.357,0.181,0.561,0.416,0.74c0.388,0.298,0.51,0.68,0.444,1.148 c-0.017,0.126-0.002,0.256-0.002,0.384c0,0.23,0.008,0.457-0.002,0.687c-0.012,0.228,0.025,0.411,0.208,0.587 c0.229,0.217,0.185,0.598-0.052,0.832c-0.121,0.122-0.279,0.183-0.438,0.183c-0.152,0-0.305-0.057-0.425-0.167 c-0.26-0.234-0.314-0.614-0.071-0.854c0.188-0.184,0.216-0.377,0.212-0.612c-0.01-0.402-0.006-0.805,0-1.206 c0.003-0.185-0.029-0.335-0.189-0.454c-0.123-0.09-0.206-0.234-0.33-0.324c-0.107-0.078-0.243-0.151-0.372-0.162 c-0.344-0.026-0.605-0.259-0.628-0.599c-0.022-0.321,0.23-0.634,0.55-0.68C109.95,31.002,109.973,31.001,109.996,31.001 M113.177,31.976c0.294,0.01,0.494,0.145,0.603,0.386c0.11,0.246,0.084,0.498-0.121,0.68c-0.141,0.123-0.18,0.252-0.18,0.428 c0.006,1.29-0.001,2.581,0.008,3.87c0.001,0.101,0.066,0.219,0.138,0.294c0.271,0.286,0.283,0.669,0.013,0.929 c-0.128,0.123-0.288,0.185-0.446,0.185c-0.174,0-0.347-0.074-0.478-0.216c-0.236-0.26-0.199-0.641,0.075-0.908 c0.063-0.061,0.113-0.165,0.113-0.251c0.007-1.326,0.008-2.653-0.005-3.979c0-0.117-0.085-0.247-0.164-0.346 c-0.171-0.211-0.234-0.434-0.116-0.683C112.73,32.119,112.93,31.992,113.177,31.976 M121.212,32.651 c0.317,0,0.502,0.119,0.617,0.334c0.121,0.227,0.126,0.479-0.047,0.669c-0.163,0.177-0.206,0.348-0.194,0.585 c0.021,0.475,0.022,0.954-0.023,1.426c-0.039,0.413,0.126,0.686,0.405,0.951c0.515,0.489,1.013,0.997,1.506,1.508 c0.073,0.076,0.121,0.208,0.122,0.315c0.01,0.886,0.004,1.772,0.004,2.66c0.001,0.282-0.043,0.558,0.215,0.799 c0.187,0.174,0.172,0.456,0.025,0.687c-0.13,0.2-0.311,0.299-0.529,0.299c-0.042,0-0.085-0.003-0.13-0.011 c-0.255-0.042-0.463-0.174-0.51-0.438c-0.04-0.234,0.004-0.462,0.194-0.65c0.083-0.083,0.146-0.229,0.148-0.348 c0.011-0.915,0.012-1.831,0-2.746c-0.002-0.121-0.065-0.271-0.149-0.357c-0.565-0.58-1.15-1.139-1.709-1.724 c-0.101-0.104-0.151-0.292-0.156-0.443c-0.017-0.677,0-1.353-0.017-2.03c-0.005-0.135-0.073-0.289-0.158-0.398 c-0.174-0.227-0.216-0.466-0.112-0.719c0.102-0.238,0.304-0.354,0.491-0.368C121.208,32.651,121.21,32.651,121.212,32.651 M115.228,33.815c0.241,0.011,0.448,0.1,0.553,0.351c0.116,0.272,0.056,0.51-0.112,0.744c-0.077,0.107-0.152,0.247-0.153,0.372 c-0.011,1.246-0.005,2.491-0.004,3.737c0,0.192,0.013,0.357,0.183,0.512c0.242,0.224,0.192,0.674-0.053,0.883 c-0.117,0.102-0.28,0.152-0.438,0.152s-0.312-0.049-0.414-0.147c-0.256-0.248-0.257-0.638-0.022-0.915 c0.074-0.087,0.135-0.218,0.137-0.328c0.014-1.328,0.021-2.658,0.013-3.986c-0.001-0.124-0.103-0.263-0.188-0.37 c-0.174-0.214-0.167-0.438-0.062-0.667C114.772,33.925,114.966,33.818,115.228,33.815 M129.372,35.649 c0.173,0,0.346,0.051,0.442,0.152c0.247,0.262,0.234,0.673-0.014,0.942c-0.065,0.071-0.118,0.186-0.12,0.279 c-0.01,0.704-0.011,1.408,0.002,2.112c0.002,0.118,0.067,0.255,0.146,0.348c0.199,0.241,0.227,0.544,0.045,0.836 c-0.096,0.15-0.32,0.253-0.521,0.253c-0.045,0-0.086-0.005-0.128-0.015c-0.302-0.079-0.48-0.32-0.475-0.734 c0.02-0.047,0.046-0.204,0.136-0.279c0.184-0.15,0.193-0.331,0.193-0.538c-0.007-0.649,0.002-1.298-0.011-1.947 c-0.003-0.113-0.06-0.243-0.135-0.33c-0.244-0.284-0.25-0.688,0.007-0.935C129.04,35.696,129.206,35.649,129.372,35.649 M121.31,38.447c0.059,0,0.116,0.008,0.172,0.022c0.249,0.07,0.427,0.325,0.456,0.617c-0.06,0.141-0.121,0.278-0.183,0.417 c-0.056,0.132-0.16,0.261-0.166,0.394c-0.023,0.521-0.021,1.043-0.011,1.564c0.002,0.111,0.068,0.239,0.144,0.327 c0.262,0.314,0.252,0.676-0.052,0.967c-0.097,0.095-0.226,0.141-0.36,0.141c-0.165,0-0.338-0.068-0.473-0.202 c-0.244-0.244-0.23-0.623,0.015-0.912c0.069-0.082,0.125-0.203,0.127-0.306c0.013-0.541,0.016-1.08,0-1.619 c-0.003-0.109-0.069-0.235-0.145-0.321c-0.182-0.207-0.233-0.54-0.093-0.789C120.845,38.563,121.078,38.447,121.31,38.447 M123.221,17.354c-0.225,0-0.54,0.091-0.77,0.526c-0.207,0.389-0.146,0.821,0.155,1.096c0.066,0.06,0.084,0.106,0.078,0.307 c-0.003,0.124-0.003,0.248,0,0.372c0.005,0.25,0.002,0.357-0.113,0.474c-0.164,0.163-0.249,0.383-0.239,0.616 c0.01,0.271,0.144,0.537,0.364,0.73c0.175,0.151,0.394,0.235,0.616,0.235c0.25,0,0.49-0.101,0.678-0.284 c0.188-0.184,0.294-0.441,0.292-0.708c-0.002-0.242-0.095-0.462-0.261-0.623c-0.064-0.06-0.085-0.11-0.082-0.286l0.002-0.134 c0.006-0.155,0.009-0.31,0.001-0.463c-0.006-0.146,0.02-0.197,0.081-0.256c0.287-0.28,0.343-0.675,0.148-1.056 c-0.228-0.447-0.563-0.541-0.804-0.541c-0.018,0-0.036,0.001-0.056,0.002C123.28,17.355,123.25,17.354,123.221,17.354 L123.221,17.354z M121.309,17.465c-0.25,0-0.484,0.097-0.664,0.272c-0.384,0.376-0.398,0.925-0.037,1.368 c0.042,0.052,0.071,0.129,0.072,0.169c0.007,0.349,0.007,0.701,0.006,1.051c0,0.355,0,0.709,0.006,1.064 c0.006,0.223,0.1,0.462,0.243,0.611c1.221,1.267,2.448,2.526,3.682,3.78c0.074,0.074,0.095,0.119,0.092,0.213 c-0.01,0.793-0.009,1.443,0.005,2.044c0.004,0.221,0.1,0.459,0.244,0.609c0.255,0.267,0.513,0.524,0.771,0.785 c0.294,0.295,0.587,0.589,0.873,0.891c0.054,0.057,0.102,0.172,0.105,0.253c0.015,0.362,0.012,0.724,0.009,1.085 c-0.002,0.192-0.003,0.385-0.002,0.578c0,0.129-0.021,0.164-0.072,0.211c-0.165,0.155-0.257,0.377-0.261,0.622 c-0.006,0.268,0.095,0.525,0.273,0.707c0.19,0.194,0.439,0.302,0.699,0.302c0.239,0,0.471-0.094,0.651-0.261 c0.196-0.181,0.313-0.455,0.313-0.732c0-0.24-0.089-0.455-0.251-0.604c-0.091-0.085-0.103-0.155-0.103-0.393l0.001-0.575v-0.249 L127.966,31c0.003-0.264,0.005-0.529-0.006-0.791c-0.007-0.156-0.068-0.378-0.219-0.534c-0.267-0.276-0.538-0.55-0.809-0.823 c-0.301-0.303-0.599-0.605-0.896-0.913c-0.05-0.053-0.085-0.133-0.087-0.162c-0.009-0.376-0.009-0.752-0.009-1.127 c0-0.319,0-0.639-0.007-0.958c-0.003-0.177-0.063-0.427-0.227-0.595c-0.642-0.661-1.286-1.32-1.932-1.978 c-0.592-0.605-1.185-1.211-1.774-1.818c-0.023-0.024-0.049-0.088-0.05-0.122c-0.015-0.647-0.015-1.289,0-1.906 c0.001-0.037,0.03-0.113,0.077-0.172c0.352-0.441,0.326-1.004-0.06-1.369C121.788,17.559,121.553,17.465,121.309,17.465 L121.309,17.465z M125.322,17.744c-0.256,0-0.499,0.105-0.685,0.295c-0.383,0.394-0.385,0.929-0.003,1.365 c0.04,0.048,0.063,0.111,0.064,0.131c0.005,0.376,0.003,0.752,0.002,1.128c-0.001,0.366-0.003,0.731,0.002,1.098 c0.003,0.245-0.019,0.327-0.111,0.417c-0.278,0.277-0.325,0.684-0.12,1.066c0.176,0.327,0.479,0.507,0.849,0.507 c0.001,0,0.001,0,0.002,0c0.404,0,0.708-0.198,0.888-0.558c0.189-0.379,0.117-0.786-0.189-1.06 c-0.064-0.057-0.082-0.105-0.081-0.31c0.001-0.267,0.001-0.533,0.001-0.8c0-0.483-0.001-0.965,0.009-1.447 c0.001-0.046,0.033-0.134,0.084-0.197c0.377-0.47,0.358-0.992-0.044-1.368C125.801,17.84,125.565,17.744,125.322,17.744 L125.322,17.744z M119.264,17.745c-0.261,0-0.506,0.102-0.69,0.287c-0.374,0.371-0.374,0.95-0.001,1.375 c0.036,0.043,0.062,0.107,0.063,0.13c0.011,1.106,0.01,2.213,0,3.319c0,0.025-0.022,0.08-0.041,0.1 c-0.555,0.577-1.118,1.145-1.688,1.706c-0.197,0.197-0.29,0.418-0.289,0.697c0.009,1.602,0.009,3.203-0.003,4.806 c-0.003,0.028-0.044,0.108-0.069,0.162c-0.024,0.046-0.046,0.091-0.065,0.133c-0.042,0.098-0.088,0.191-0.134,0.287l-0.065,0.132 l-0.045,0.093l0.015,0.102c0.063,0.465,0.33,0.785,0.751,0.901c0.075,0.021,0.152,0.03,0.231,0.03 c0.335,0,0.659-0.183,0.847-0.479c0.227-0.357,0.163-0.881-0.145-1.165c-0.045-0.041-0.065-0.072-0.063-0.208 c0.004-0.587,0.005-1.173,0.005-1.76l-0.001-0.857c-0.001-0.674-0.002-1.349,0.001-2.021c0.567-0.591,1.127-1.15,1.689-1.708 c0.218-0.215,0.318-0.453,0.316-0.749c-0.009-1.202-0.005-2.375,0.009-3.483c0.001-0.043,0.033-0.129,0.083-0.189 c0.353-0.428,0.333-1.021-0.045-1.375C119.746,17.839,119.51,17.745,119.264,17.745L119.264,17.745z M117.231,18.452 c-0.312,0-0.604,0.15-0.783,0.403c-0.244,0.344-0.202,0.881,0.098,1.248c0.037,0.046,0.068,0.125,0.07,0.178 c0.012,0.247,0.009,0.495,0.008,0.742c-0.001,0.18-0.002,0.359,0.001,0.539c0.004,0.119-0.017,0.16-0.07,0.214 c-0.124,0.12-0.181,0.271-0.225,0.393c-0.014,0.036-0.027,0.074-0.044,0.105l-0.039,0.087l0.011,0.096 c0.057,0.48,0.3,0.788,0.724,0.913c0.085,0.025,0.174,0.039,0.263,0.039c0.332,0,0.648-0.179,0.823-0.463 c0.243-0.394,0.182-0.92-0.141-1.196c-0.042-0.036-0.061-0.058-0.061-0.199l0.006-0.385c0.004-0.241,0.006-0.482,0.001-0.723 c-0.009-0.277,0.005-0.335,0.086-0.391c0.138-0.091,0.178-0.236,0.2-0.313c0.146-0.492-0.049-0.959-0.478-1.179 C117.542,18.49,117.387,18.452,117.231,18.452L117.231,18.452z M127.405,18.652h-0.007h-0.028 c-0.594,0.009-0.825,0.367-0.909,0.58c-0.151,0.379-0.087,0.757,0.181,1.063c0.041,0.047,0.063,0.094,0.065,0.111 c0.008,1.948,0.008,3.906,0,5.861c-0.001,0.022-0.026,0.087-0.071,0.139c-0.342,0.41-0.329,1.004,0.027,1.352 c0.189,0.186,0.432,0.286,0.687,0.286c0.248,0,0.483-0.097,0.663-0.271c0.367-0.357,0.392-0.922,0.062-1.344 c-0.063-0.079-0.101-0.175-0.101-0.22c-0.013-1.858-0.013-3.788-0.002-5.733c0-0.031,0.032-0.114,0.092-0.191 c0.259-0.325,0.316-0.703,0.165-1.061C128.079,18.871,127.765,18.652,127.405,18.652L127.405,18.652z M115.214,19.865 c-0.389,0-0.718,0.221-0.88,0.59c-0.167,0.378-0.092,0.781,0.197,1.046c0.029,0.029,0.047,0.046,0.047,0.179 c-0.006,0.812-0.005,1.625-0.003,2.438v0.804v0.341h0.003V25.7c0.001,0.848,0.002,1.695-0.008,2.543 c0,0.049-0.031,0.139-0.082,0.205c-0.33,0.438-0.3,0.99,0.072,1.342c0.179,0.171,0.413,0.265,0.658,0.265 c0.247,0,0.482-0.094,0.663-0.265c0.354-0.334,0.388-0.941,0.075-1.356c-0.065-0.085-0.101-0.178-0.101-0.222 c-0.013-2.196-0.013-4.394-0.006-6.59c0.004-0.001,0.024-0.048,0.073-0.107c0.263-0.313,0.331-0.783,0.16-1.113 c-0.178-0.343-0.483-0.534-0.865-0.536h-0.001H115.214L115.214,19.865z M129.364,19.868L129.364,19.868 c-0.257,0-0.494,0.091-0.653,0.251c-0.383,0.382-0.401,0.97-0.047,1.397c0.043,0.051,0.069,0.125,0.069,0.158 c0.007,1.533,0.007,3.069,0.007,4.604v1.164v1.418c-0.002,1.424-0.003,2.848,0.01,4.272c0.002,0.161-0.044,0.262-0.181,0.396 l-0.225,0.225c-0.458,0.453-0.917,0.908-1.361,1.376c-0.157,0.165-0.259,0.422-0.262,0.657c-0.005,0.768-0.005,1.535-0.007,2.303 c-0.001,0.725-0.001,1.45-0.005,2.175c-0.001,0.072-0.035,0.172-0.079,0.226c-0.341,0.43-0.331,0.982,0.023,1.344 c0.184,0.187,0.438,0.294,0.698,0.294c0.248,0,0.481-0.095,0.658-0.263c0.379-0.366,0.4-0.944,0.05-1.375 c-0.06-0.072-0.087-0.144-0.087-0.165c-0.013-1.445-0.013-2.889-0.004-4.333c0.001-0.03,0.026-0.096,0.053-0.123 c0.256-0.268,0.518-0.531,0.777-0.794c0.311-0.313,0.622-0.629,0.926-0.949c0.168-0.178,0.275-0.443,0.275-0.68 c0.006-2.103,0.007-4.204,0.008-6.308c0.001-1.817,0.002-3.634,0.005-5.451c0-0.041,0.033-0.126,0.083-0.19 c0.329-0.423,0.302-1.028-0.063-1.377C129.866,19.959,129.621,19.868,129.364,19.868L129.364,19.868z M131.385,21.691 c-0.266,0-0.515,0.111-0.702,0.311c-0.344,0.365-0.334,0.96,0.021,1.353c0.032,0.037,0.057,0.099,0.059,0.122 c0.008,1.638,0.009,3.276,0,4.913c-0.002,0.358,0.111,0.637,0.355,0.877c0.521,0.507,1.047,1.037,1.606,1.62 c0.027,0.028,0.052,0.094,0.054,0.123c0.007,0.496,0.007,0.991,0.007,1.486c0,0.392,0,0.783,0.003,1.174 c0.001,0.161-0.023,0.2-0.08,0.25c-0.133,0.12-0.187,0.281-0.225,0.398c-0.012,0.032-0.021,0.063-0.034,0.092l-0.051,0.117 l0.039,0.123c0.012,0.039,0.022,0.078,0.031,0.114c0.026,0.1,0.055,0.213,0.121,0.32c0.175,0.281,0.493,0.457,0.832,0.457 c0.216,0,0.426-0.072,0.591-0.201c0.205-0.16,0.332-0.391,0.359-0.648c0.029-0.274-0.055-0.545-0.236-0.765 c-0.028-0.034-0.079-0.098-0.091-0.122c0.003-0.402,0.005-0.848,0.007-1.293c0.002-0.47,0.004-0.938-0.001-1.408l0.001-0.108 c0.006-0.228,0.013-0.571-0.27-0.851c-0.563-0.554-1.123-1.112-1.671-1.682c-0.052-0.054-0.088-0.134-0.09-0.164 c-0.011-1.502-0.011-3.082,0.001-4.828c0.002-0.019,0.027-0.08,0.071-0.13c0.378-0.434,0.367-0.985-0.029-1.372 C131.877,21.791,131.637,21.691,131.385,21.691L131.385,21.691z M113.255,21.695h-0.009c-0.428,0.003-0.75,0.197-0.93,0.563 c-0.19,0.387-0.118,0.805,0.185,1.062c0.055,0.047,0.071,0.076,0.071,0.25l-0.007,3.23l-0.005,2.647 c0,0.237,0.031,0.515,0.277,0.759c0.872,0.867,1.739,1.742,2.605,2.614l1.04,1.048c0.123,0.123,0.146,0.189,0.145,0.279 c-0.005,1.012-0.006,2.023-0.006,3.035c0,1.048-0.001,2.098-0.006,3.146c0,0.025-0.025,0.099-0.076,0.155 c-0.332,0.386-0.337,0.981-0.011,1.33c0.189,0.204,0.444,0.315,0.714,0.315c0.234,0,0.46-0.086,0.636-0.248 c0.206-0.188,0.326-0.447,0.335-0.712c0.007-0.246-0.085-0.479-0.257-0.653c-0.063-0.065-0.096-0.123-0.094-0.275 c0.004-0.541,0.003-1.083,0.002-1.624l-0.001-0.712l0.001-0.813c0-1.057,0-2.112,0.003-3.169 c0.001-0.338-0.108-0.597-0.336-0.793c-0.193-0.166-0.372-0.347-0.563-0.539l-1.031-1.047c-0.67-0.679-1.339-1.358-2.013-2.033 c-0.089-0.09-0.115-0.146-0.115-0.259c0.007-1.887,0.005-3.774,0-5.661c0-0.173,0.021-0.208,0.073-0.256 c0.3-0.266,0.378-0.667,0.205-1.05c-0.162-0.359-0.464-0.576-0.827-0.59L113.255,21.695L113.255,21.695z M121.299,23.293 L121.299,23.293h-0.01c-0.405,0.001-0.775,0.249-0.897,0.602c-0.128,0.361-0.072,0.71,0.157,1.015 c0.056,0.069,0.096,0.168,0.099,0.233c0.01,0.27,0.005,0.54,0,0.811c-0.004,0.174-0.007,0.348-0.007,0.522 c0.004,1.235,0.009,2.471,0.021,3.704c0.002,0.146-0.027,0.22-0.118,0.306c-0.274,0.263-0.539,0.532-0.806,0.802 c-0.233,0.236-0.466,0.473-0.705,0.704c-0.275,0.268-0.403,0.574-0.401,0.966c0.01,1.747,0.01,3.493,0.011,5.239l0.001,2.838 c0,0.182-0.02,0.253-0.096,0.334c-0.179,0.187-0.273,0.425-0.266,0.667c0.008,0.256,0.125,0.502,0.331,0.693 c0.181,0.167,0.41,0.259,0.648,0.259c0.254,0,0.494-0.102,0.677-0.289c0.363-0.369,0.384-0.909,0.051-1.341 c-0.07-0.089-0.101-0.182-0.101-0.219c-0.009-2.7-0.009-5.4,0-8.103c0-0.041,0.033-0.127,0.072-0.166 c0.55-0.578,1.124-1.151,1.666-1.689c0.198-0.197,0.291-0.43,0.29-0.726c-0.008-1.775-0.005-3.55,0.008-5.326 c0-0.029,0.023-0.112,0.108-0.238c0.286-0.419,0.225-0.788,0.122-1.024C121.998,23.503,121.686,23.293,121.299,23.293 L121.299,23.293z M133.41,24.496L133.41,24.496c-0.252-0.002-0.496,0.104-0.688,0.295c-0.181,0.181-0.283,0.435-0.281,0.695 c0.002,0.245,0.095,0.47,0.261,0.63c0.068,0.066,0.092,0.117,0.084,0.275c-0.005,0.12-0.004,0.241-0.003,0.362l0.001,0.147 l0.002,0.068c0.001,0.028,0.004,0.055,0.001,0.081c-0.081,0.658,0.114,1.154,0.598,1.518c0.221,0.165,0.314,0.311,0.333,0.517 c0.042,0.47,0.515,0.761,0.929,0.761c0.054,0,0.105-0.004,0.155-0.014c0.598-0.116,0.853-0.665,0.788-1.124 c-0.064-0.452-0.462-0.821-0.887-0.821c-0.045,0-0.089,0.005-0.133,0.012c-0.005,0-0.01,0-0.015,0 c-0.04,0-0.063-0.013-0.141-0.077l-0.076-0.058c-0.264-0.2-0.354-0.441-0.305-0.808c0.02-0.137,0.014-0.27,0.011-0.387 l-0.004-0.128c-0.001-0.201,0.02-0.276,0.1-0.359c0.17-0.179,0.259-0.409,0.247-0.649c-0.012-0.258-0.141-0.511-0.35-0.694 C133.854,24.579,133.637,24.496,133.41,24.496L133.41,24.496L133.41,24.496z M119.246,25.065c-0.376,0-0.696,0.204-0.875,0.557 c-0.172,0.343-0.12,0.694,0.156,1.047c0.066,0.085,0.09,0.151,0.09,0.17c0.019,0.571,0.023,1.18,0.018,1.974 c-0.001-0.004-0.003-0.006-0.005-0.006c-0.004,0-0.012,0.009-0.019,0.018c-0.296,0.283-0.398,0.711-0.261,1.088 c0.138,0.379,0.514,0.619,0.98,0.622c0.364-0.022,0.66-0.239,0.817-0.583c0.176-0.386,0.102-0.798-0.195-1.074 c-0.063-0.06-0.081-0.101-0.079-0.256c0.003-0.201,0.002-0.398,0.001-0.598c0-0.176,0-0.35,0.001-0.525l0.001-0.145 c-0.001-0.373,0.008-0.614,0.188-0.829s0.187-0.576,0.115-0.821c-0.111-0.39-0.451-0.629-0.91-0.638h-0.003H119.246 L119.246,25.065z M123.336,25.102l-0.016,0.001c-0.431,0.013-0.75,0.224-0.898,0.592c-0.161,0.395-0.086,0.792,0.202,1.061 c0.045,0.043,0.064,0.074,0.064,0.213c-0.004,2.526-0.004,5.054-0.002,7.58c0,0.168-0.017,0.208-0.078,0.267 c-0.182,0.175-0.277,0.419-0.269,0.687c0.008,0.281,0.136,0.552,0.34,0.725c0.173,0.146,0.393,0.228,0.617,0.228 c0.264,0,0.521-0.111,0.706-0.308c0.368-0.39,0.359-0.954-0.021-1.371c-0.014-0.016-0.034-0.069-0.034-0.104 c-0.008-2.58-0.01-5.161,0-7.742c0-0.033,0.028-0.122,0.104-0.231c0.309-0.431,0.241-0.8,0.132-1.032 c-0.157-0.334-0.46-0.539-0.831-0.563H123.336L123.336,25.102z M111.182,25.104L111.182,25.104c-0.245,0-0.481,0.097-0.666,0.271 c-0.206,0.194-0.324,0.456-0.324,0.718c0,0.234,0.093,0.449,0.262,0.609c0.091,0.085,0.112,0.161,0.104,0.379 c-0.008,0.195-0.006,0.392-0.005,0.588l0.003,0.249v0.338h0.005v0.155c0,0.055,0.002,0.112,0.004,0.168 c0.003,0.109,0.008,0.212-0.007,0.3c-0.021,0.126-0.058,0.208-0.087,0.243c-0.363,0.444-0.349,0.995,0.033,1.368 c0.181,0.177,0.419,0.274,0.673,0.274c0.259,0,0.502-0.102,0.686-0.284c0.373-0.378,0.377-0.942,0.011-1.37 c-0.038-0.044-0.064-0.112-0.064-0.138c-0.009-0.37-0.009-0.738-0.009-1.108c0-0.278,0.001-0.559-0.003-0.837 c-0.002-0.166,0.02-0.231,0.101-0.312c0.171-0.168,0.265-0.388,0.265-0.62c-0.001-0.261-0.115-0.518-0.324-0.72 C111.66,25.201,111.426,25.104,111.182,25.104L111.182,25.104L111.182,25.104z M125.339,30.056h-0.003l-0.021,0.001 c-0.375,0.009-0.701,0.225-0.871,0.579c-0.218,0.451-0.021,0.805,0.147,1.032c0.068,0.095,0.103,0.19,0.105,0.242 c0.015,0.271,0.01,0.54,0.006,0.813c-0.002,0.135-0.003,0.271-0.003,0.405v1.719c0.002,2.117,0.004,4.235,0,6.353 c0,0.021-0.023,0.077-0.052,0.107c-0.396,0.457-0.399,0.989-0.008,1.39c0.186,0.189,0.429,0.295,0.686,0.295 c0.243,0,0.48-0.098,0.666-0.274c0.401-0.386,0.415-0.933,0.035-1.392c-0.042-0.052-0.078-0.139-0.079-0.192 c-0.006-0.46-0.002-0.919,0.001-1.377c0.003-0.29,0.004-0.58,0.004-0.87c-0.001-1.699-0.006-3.397-0.009-5.098l-0.004-1.794 c0-0.199,0.012-0.248,0.08-0.308c0.308-0.27,0.379-0.687,0.183-1.066C125.963,30.155,125.601,30.056,125.339,30.056 L125.339,30.056z M131.327,30.601c-0.369,0-0.686,0.223-0.827,0.581c-0.154,0.393-0.084,0.767,0.197,1.05 c0.034,0.033,0.063,0.106,0.063,0.135c0.011,1.654,0.01,3.309,0.002,4.964c-0.002,0.009-0.02,0.047-0.034,0.062 c-0.39,0.406-0.396,1.04-0.015,1.416c0.185,0.18,0.426,0.279,0.678,0.279c0.265,0,0.515-0.109,0.702-0.308 c0.374-0.395,0.364-0.975-0.025-1.378c-0.021-0.023-0.039-0.059-0.042-0.073c-0.01-1.642-0.011-3.297-0.002-4.951 c0-0.025,0.027-0.1,0.078-0.161c0.348-0.412,0.291-0.792,0.183-1.04c-0.163-0.37-0.476-0.573-0.878-0.573 C131.382,30.603,131.356,30.601,131.327,30.601L131.327,30.601z M109.996,30.661c-0.039,0-0.078,0.002-0.116,0.008 c-0.496,0.072-0.872,0.538-0.839,1.039c0.033,0.496,0.419,0.873,0.939,0.914c0.033,0.003,0.106,0.03,0.199,0.098 c0.033,0.023,0.072,0.066,0.113,0.114c0.059,0.067,0.126,0.144,0.217,0.21c0.032,0.023,0.054,0.041,0.052,0.173 c-0.005,0.407-0.009,0.813-0.001,1.22c0.004,0.197-0.02,0.275-0.11,0.363c-0.169,0.167-0.261,0.391-0.257,0.629 c0.004,0.267,0.128,0.528,0.337,0.72c0.18,0.164,0.41,0.253,0.651,0.253c0.255,0,0.495-0.1,0.675-0.278 c0.195-0.192,0.305-0.456,0.301-0.72c-0.002-0.232-0.092-0.446-0.256-0.601c-0.078-0.074-0.111-0.14-0.102-0.325 c0.008-0.165,0.006-0.33,0.004-0.497l-0.002-0.204l-0.002-0.133c-0.003-0.067-0.009-0.138,0.001-0.203 c0.085-0.615-0.107-1.109-0.574-1.466c-0.211-0.161-0.281-0.28-0.281-0.471C110.942,31.007,110.442,30.661,109.996,30.661 L109.996,30.661z M113.17,31.636l-0.017,0.001c-0.379,0.026-0.678,0.233-0.841,0.581c-0.114,0.244-0.181,0.623,0.159,1.042 c0.079,0.1,0.091,0.146,0.091,0.146c0.011,1.313,0.009,2.638,0.003,3.964c-0.417,0.406-0.455,1-0.1,1.389 c0.19,0.211,0.448,0.326,0.725,0.326c0.252,0,0.492-0.099,0.679-0.277c0.2-0.191,0.307-0.441,0.301-0.706 c-0.006-0.252-0.113-0.501-0.302-0.702c-0.023-0.024-0.044-0.061-0.046-0.075c-0.005-0.759-0.005-1.53-0.005-2.303l-0.002-1.554 c0-0.104,0.017-0.129,0.063-0.171c0.31-0.271,0.388-0.674,0.207-1.074c-0.165-0.363-0.484-0.572-0.898-0.585L113.17,31.636 L113.17,31.636z M121.212,32.313L121.212,32.313h-0.011c-0.361,0.025-0.659,0.245-0.797,0.576 c-0.15,0.362-0.098,0.729,0.155,1.057c0.055,0.072,0.087,0.157,0.088,0.201c0.008,0.332,0.008,0.667,0.008,0.999 c0,0.344,0,0.688,0.01,1.031c0.005,0.203,0.074,0.486,0.249,0.669c0.31,0.324,0.629,0.641,0.947,0.957 c0.255,0.256,0.512,0.51,0.766,0.769c0.025,0.028,0.052,0.095,0.052,0.124c0.012,0.9,0.012,1.821,0,2.737 c0,0.029-0.026,0.09-0.048,0.11c-0.254,0.252-0.354,0.58-0.289,0.95c0.065,0.384,0.354,0.646,0.789,0.715 c0.063,0.01,0.124,0.016,0.182,0.016c0.337,0,0.625-0.161,0.813-0.452c0.252-0.392,0.221-0.843-0.078-1.121 c-0.106-0.098-0.112-0.188-0.108-0.435l0.001-0.117v-0.924c0.001-0.58,0.002-1.159-0.005-1.74 c-0.001-0.196-0.086-0.413-0.217-0.547c-0.475-0.491-0.988-1.014-1.516-1.517c-0.248-0.237-0.327-0.412-0.302-0.673 c0.042-0.424,0.051-0.892,0.024-1.475c-0.008-0.165,0.018-0.241,0.107-0.341c0.26-0.287,0.295-0.683,0.094-1.059 C121.943,32.484,121.637,32.313,121.212,32.313L121.212,32.313z M115.234,33.475h-0.011c-0.399,0.006-0.705,0.195-0.862,0.535 c-0.217,0.467-0.063,0.813,0.103,1.023c0.095,0.115,0.111,0.16,0.115,0.175c0.006,1.178,0.002,2.44-0.015,3.963 c-0.001,0.019-0.021,0.072-0.055,0.111c-0.356,0.419-0.337,1.013,0.044,1.382c0.163,0.156,0.392,0.241,0.648,0.241 c0.246,0,0.486-0.084,0.659-0.233c0.2-0.173,0.322-0.445,0.326-0.73c0.005-0.264-0.091-0.499-0.269-0.66 c-0.057-0.055-0.072-0.09-0.072-0.262l-0.001-0.799c-0.003-0.978-0.004-1.957,0.006-2.937c0.001-0.013,0.018-0.076,0.09-0.175 c0.252-0.353,0.302-0.716,0.148-1.076c-0.102-0.24-0.33-0.533-0.847-0.558L115.234,33.475L115.234,33.475z M129.372,35.31 c-0.265,0-0.508,0.087-0.665,0.238c-0.383,0.37-0.396,0.974-0.027,1.402c0.031,0.035,0.054,0.094,0.054,0.115 c0.008,0.396,0.008,0.793,0.008,1.189c0,0.251,0,0.503,0.001,0.756c0.003,0.194-0.016,0.229-0.068,0.271 c-0.147,0.123-0.201,0.298-0.229,0.392l-0.029,0.065l-0.003,0.081c-0.007,0.554,0.259,0.942,0.728,1.065 c0.067,0.019,0.14,0.027,0.213,0.027c0.325,0,0.648-0.167,0.805-0.411c0.256-0.411,0.23-0.871-0.071-1.234 c-0.043-0.053-0.065-0.116-0.066-0.138c-0.013-0.626-0.013-1.313-0.001-2.101c0.002-0.009,0.015-0.039,0.028-0.054 c0.372-0.404,0.376-1.021,0.012-1.407C129.902,35.404,129.653,35.31,129.372,35.31L129.372,35.31z M121.31,38.107 c-0.363,0-0.701,0.187-0.86,0.473c-0.208,0.37-0.152,0.856,0.133,1.181c0.038,0.044,0.06,0.093,0.062,0.109 c0.014,0.504,0.014,1.026,0,1.597c-0.001,0.017-0.021,0.063-0.047,0.096c-0.364,0.429-0.363,1.007,0.004,1.371 c0.192,0.19,0.45,0.301,0.71,0.301c0.227,0,0.437-0.083,0.592-0.232c0.429-0.414,0.459-0.977,0.076-1.433 c-0.04-0.046-0.062-0.101-0.063-0.118c-0.013-0.572-0.01-1.076,0.01-1.538c0.004-0.018,0.038-0.078,0.061-0.119 c0.028-0.051,0.056-0.102,0.078-0.153l0.127-0.291l0.056-0.126l0.034-0.082l-0.009-0.088c-0.042-0.439-0.323-0.805-0.698-0.911 C121.488,38.119,121.4,38.107,121.31,38.107L121.31,38.107z"></path> </g> </g> <g> <path fill="#FFFFFF" d="M148.295,33.893c1.076,1.078,1.615,2.393,1.615,3.944c0,1.521-0.539,2.819-1.615,3.896 c-1.077,1.077-2.393,1.616-3.944,1.616s-2.867-0.542-3.943-1.623c-1.078-1.081-1.615-2.387-1.615-3.913 c0-1.559,0.538-2.879,1.615-3.96c1.076-1.082,2.392-1.623,3.943-1.623C145.902,32.262,147.218,32.816,148.295,33.893z"></path> <path fill="#FFFFFF" d="M181.982,42.398h-8.647V39.69h-0.095c-0.697,1.141-1.647,1.988-2.851,2.542 c-1.205,0.554-2.455,0.862-3.754,0.926c-0.127,0.031-0.255,0.048-0.381,0.048s-0.253,0-0.38,0c-3.611,0-6.565-1.29-8.861-3.872 c-2.297-2.582-3.445-5.614-3.445-9.1c0-3.483,1.133-6.517,3.396-9.1c2.266-2.582,5.204-3.873,8.815-3.873c0.157,0,0.316,0,0.475,0 s0.316,0.017,0.476,0.047c1.235,0.095,2.447,0.404,3.636,0.926c1.188,0.523,2.177,1.26,2.97,2.21v-2.423h8.647L181.982,42.398 L181.982,42.398z M163.974,26.409c-0.981,1.093-1.473,2.384-1.473,3.873c0,1.552,0.491,2.851,1.473,3.896 c0.981,1.046,2.345,1.568,4.087,1.568c1.773,0,3.144-0.524,4.11-1.574c0.966-1.05,1.449-2.354,1.449-3.913 c0-1.496-0.483-2.793-1.449-3.89c-0.967-1.097-2.337-1.646-4.11-1.646C166.318,24.754,164.955,25.316,163.974,26.409z"></path> <path fill="#FFFFFF" d="M195.478,5.289c0.95,0.95,1.426,2.09,1.426,3.421c0,1.331-0.476,2.471-1.426,3.421 s-2.091,1.425-3.421,1.425s-2.472-0.475-3.421-1.425c-0.95-0.95-1.426-2.09-1.426-3.421c0-1.343,0.476-2.494,1.426-3.454 c0.949-0.959,2.091-1.44,3.421-1.44C193.387,3.847,194.526,4.338,195.478,5.289z M196.38,42.398h-8.647V18.022h8.647V42.398z"></path> </g> </g> </svg> 